<svg xmlns="http://www.w3.org/2000/svg" xmlns:xlink="http://www.w3.org/1999/xlink" version="1.1" data-diagram-type="DESCRIPTION" style="width:445px;height:942px;" width="445px" height="942px" viewBox="0 0 445 942" zoomAndPan="magnify" preserveAspectRatio="none" contentStyleType="text/css"><?plantuml 1.2026.8?><defs/><g font-family="sans-serif" lengthAdjust="spacing"><!--entity C--><g class="entity" data-qualified-name="C" id="ent0001" data-source-line="1"><rect x="214.5" y="7" width="121.4" height="54.32" fill="#D3C6F3" style="stroke:#1A2221;stroke-width:2;" rx="6" ry="6"/><text x="224.5" y="30.26" fill="#1A2221" font-size="13" textLength="46.8" font-family="'JetBrains Mono'">Client</text><text x="224.5" y="47.42" fill="#1A2221" font-size="13" textLength="101.4" font-family="'JetBrains Mono'">browser / app</text></g><!--entity E--><g class="entity" data-qualified-name="E" id="ent0002" data-source-line="2"><rect x="167.5" y="154" width="215" height="54.32" fill="#F3C9C4" style="stroke:#1A2221;stroke-width:2;" rx="6" ry="6"/><text x="177.5" y="177.26" fill="#1A2221" font-size="13" textLength="179.4" font-family="'JetBrains Mono'">Edge / L7 load balancer</text><text x="177.5" y="194.42" fill="#1A2221" font-size="13" textLength="195" font-family="'JetBrains Mono'">TLS, HTTP/2, no buffering</text></g><!--entity G--><g class="entity" data-qualified-name="G" id="ent0003" data-source-line="3"><rect x="183" y="269" width="183.8" height="54.32" fill="#F3C9C4" style="stroke:#1A2221;stroke-width:2;" rx="6" ry="6"/><text x="193" y="292.26" fill="#1A2221" font-size="13" textLength="109.2" font-family="'JetBrains Mono'">Stream gateway</text><text x="193" y="309.42" fill="#1A2221" font-size="13" textLength="163.8" font-family="'JetBrains Mono'">holds SSE connections</text></g><!--entity S--><g class="entity" data-qualified-name="S" id="ent0004" data-source-line="4"><rect x="161.5" y="874" width="215" height="54.32" fill="#CFDDF6" style="stroke:#1A2221;stroke-width:2;stroke-dasharray:7,7;" rx="6" ry="6"/><text x="171.5" y="897.26" fill="#1A2221" font-size="13" textLength="93.6" font-family="'JetBrains Mono'">Stream store</text><text x="171.5" y="914.42" fill="#1A2221" font-size="13" textLength="195" font-family="'JetBrains Mono'">tokens by stream id + seq</text></g><!--entity A--><g class="entity" data-qualified-name="A" id="ent0005" data-source-line="5"><rect x="75" y="384" width="183.8" height="54.32" fill="#F3C9C4" style="stroke:#1A2221;stroke-width:2;" rx="6" ry="6"/><text x="85" y="407.26" fill="#1A2221" font-size="13" textLength="93.6" font-family="'JetBrains Mono'">Chat service</text><text x="85" y="424.42" fill="#1A2221" font-size="13" textLength="163.8" font-family="'JetBrains Mono'">auth, history, quotas</text></g><!--entity R--><g class="entity" data-qualified-name="R" id="ent0006" data-source-line="6"><rect x="7" y="499" width="261.8" height="54.32" fill="#F3C9C4" style="stroke:#1A2221;stroke-width:2;" rx="6" ry="6"/><text x="17" y="522.26" fill="#1A2221" font-size="13" textLength="117" font-family="'JetBrains Mono'">KV-aware router</text><text x="17" y="539.42" fill="#1A2221" font-size="13" textLength="241.8" font-family="'JetBrains Mono'">cost = uncached prefill + queue</text></g><!--entity P--><g class="entity" data-qualified-name="P" id="ent0007" data-source-line="7"><rect x="139" y="646" width="113.6" height="37.16" fill="#EFD991" style="stroke:#1A2221;stroke-width:2;" rx="6" ry="6"/><text x="149" y="669.26" fill="#1A2221" font-size="13" textLength="93.6" font-family="'JetBrains Mono'">Prefill pool</text></g><!--entity D--><g class="entity" data-qualified-name="D" id="ent0008" data-source-line="8"><rect x="162" y="760" width="105.8" height="37.16" fill="#EFD991" style="stroke:#1A2221;stroke-width:2;" rx="6" ry="6"/><text x="172" y="783.26" fill="#1A2221" font-size="13" textLength="85.8" font-family="'JetBrains Mono'">Decode pool</text></g><!--link C to E--><g class="link" data-entity-1="ent0001" data-entity-2="ent0002" id="lnk9" data-source-line="9" data-link-type="dependency"><path d="M275,61.26 C275,87.54 275,122.73 275,148.94" style="stroke:#181818;stroke-width:1;" fill="none" id="C-to-E"/><polygon points="275,153.94,279,144.94,275,148.94,271,144.94,275,153.94" fill="#181818" style="stroke:#181818;stroke-width:1;stroke-linejoin:miter;stroke-miterlimit:10;"/><text x="276" y="104.594" fill="#000" font-size="13" textLength="69.983">POST /chat</text><text x="283.316" y="120.323" fill="#000" font-size="13" textLength="55.352">then SSE</text></g><!--link E to G--><g class="link" data-entity-1="ent0002" data-entity-2="ent0003" id="lnk10" data-source-line="10" data-link-type="dependency"><path d="M275,208.21 C275,226.46 275,245.71 275,263.93" style="stroke:#181818;stroke-width:1;" fill="none" id="E-to-G"/><polygon points="275,268.93,279,259.93,275,263.93,271,259.93,275,268.93" fill="#181818" style="stroke:#181818;stroke-width:1;stroke-linejoin:miter;stroke-miterlimit:10;"/></g><!--link G to A--><g class="link" data-entity-1="ent0003" data-entity-2="ent0005" id="lnk11" data-source-line="11" data-link-type="dependency"><path d="M249.95,323.21 C232.5,341.46 212.785,362.096 195.365,380.316" style="stroke:#181818;stroke-width:1;" fill="none" id="G-to-A"/><polygon points="191.91,383.93,201.021,380.189,195.365,380.316,195.238,374.661,191.91,383.93" fill="#181818" style="stroke:#181818;stroke-width:1;stroke-linejoin:miter;stroke-miterlimit:10;"/></g><!--link A to R--><g class="link" data-entity-1="ent0005" data-entity-2="ent0006" id="lnk12" data-source-line="12" data-link-type="dependency"><path d="M160.27,438.21 C155.59,456.46 150.614,475.867 145.934,494.087" style="stroke:#181818;stroke-width:1;" fill="none" id="A-to-R"/><polygon points="144.69,498.93,150.803,491.208,145.934,494.087,143.055,489.218,144.69,498.93" fill="#181818" style="stroke:#181818;stroke-width:1;stroke-linejoin:miter;stroke-miterlimit:10;"/></g><!--link R to P--><g class="link" data-entity-1="ent0006" data-entity-2="ent0007" id="lnk13" data-source-line="13" data-link-type="dependency"><path d="M149.18,553.32 C160.77,580.59 176.593,617.839 186.583,641.329" style="stroke:#181818;stroke-width:1;" fill="none" id="R-to-P"/><polygon points="188.54,645.93,188.699,636.082,186.583,641.329,181.337,639.213,188.54,645.93" fill="#181818" style="stroke:#181818;stroke-width:1;stroke-linejoin:miter;stroke-miterlimit:10;"/><text x="177" y="604.594" fill="#000" font-size="13" textLength="100.445">new tokens only</text></g><!--link P to D--><g class="link" data-entity-1="ent0007" data-entity-2="ent0008" id="lnk14" data-source-line="14" data-link-type="dependency"><path d="M199.05,683.49 C202.62,704.52 207.643,734.141 211.183,754.991" style="stroke:#181818;stroke-width:1;" fill="none" id="P-to-D"/><polygon points="212.02,759.92,214.457,750.377,211.183,754.991,206.57,751.717,212.02,759.92" fill="#181818" style="stroke:#181818;stroke-width:1;stroke-linejoin:miter;stroke-miterlimit:10;"/><text x="208" y="726.594" fill="#000" font-size="13" textLength="58.779">KV cache</text></g><!--link D to S--><g class="link" data-entity-1="ent0008" data-entity-2="ent0004" id="lnk15" data-source-line="15" data-link-type="dependency"><path d="M222.85,797.02 C231.86,817.13 244.685,845.747 255.105,868.997" style="stroke:#181818;stroke-width:1;" fill="none" id="D-to-S"/><polygon points="257.15,873.56,257.119,863.711,255.105,868.997,249.819,866.983,257.15,873.56" fill="#181818" style="stroke:#181818;stroke-width:1;stroke-linejoin:miter;stroke-miterlimit:10;"/><text x="245" y="840.594" fill="#000" font-size="13" textLength="41.304">tokens</text></g><!--link S to G--><g class="link" data-entity-1="ent0004" data-entity-2="ent0003" id="lnk16" data-source-line="16" data-link-type="dependency"><path d="M288.13,873.7 C303.32,850.21 322,814.24 322,779.5 C322,410 322,410 322,410 C322,378.34 308.657,349.545 295.347,327.415" style="stroke:#181818;stroke-width:1;" fill="none" id="S-to-G"/><polygon points="292.77,323.13,293.981,332.904,295.347,327.415,300.836,328.781,292.77,323.13" fill="#181818" style="stroke:#181818;stroke-width:1;stroke-linejoin:miter;stroke-miterlimit:10;"/><text x="353.018" y="596.594" fill="#000" font-size="13" textLength="46.928">fan out,</text><text x="323" y="612.323" fill="#000" font-size="13" textLength="106.964">replay on resume</text></g><?plantuml-src jLPDJzj04BtxLupWs50I1qofKgJ47rGbRICSSSfbOqzYAvjTixjkb5RyzuwT08wnIolKawMPD-_jl9tTjSB8CB7a24SkJr6OcPWhkT6eu1HObXt1O90XggihO1fSIptZ_NY911fV09SiXZdZJ4IePc8w3ZlmUJgTdDeT41Bc-MA1AXNBWcpDKh4ZywjaeL78rh1a1ZTiEnE9vB66CFGXaa8GBfL27zPVDzHh8nNEX94h51hcMmgKyJI6Tw3nlc3G2LCOxpZ2AeURC4CWzIEDY8Fb9kb0aXQKsmxSvzAmsWg6rUgRknEs8MPGCZU53P7K1Zv1BY8M9HX3fd2HSauBkSynnqEgsohLP8_CfEG5R2FLwd4B9bMWXv6CiH7dMIwSd5o13nzXyZsSmcb4xP4r2Oh2LyilqzVMTVaTMiFoUslTbjy9bGdSmDv9AVZMcfGPZp8tTr0sPNbbAAJG3cY5ErOAB9W0Sg8p4mepphR40GfrlaPBhrAHCKNxCcVHQac6YTYLN2emYWbDAHh42efsB9OR6Y0YvRfQlozLWkQrPrSICIvOpaqWXVd6rcJL5pGZHNPh-2g5F6g6XkbFX5w_ERbRuN5lQDjshm8PAZem-wGpSW9dM4zEapHQ2TGQUkzVLBvA_RmmkodrMdlFu_BB0XZL33yEHi4mS8gCL36gmpuUeuSDF5JOHJ5__uCu8pwsREFk-RxV_oTkW9T6xsAXsP8vGgeruxNUJ8k-twSL17NzRjVfEswZqaFJXWm6Z7EveVFQB78UsFwmBc875zwvVIYoZxM8n2YsRHh1oB_qB-eQhdtMixr3ZNsihH6zQctZGz0DHY_RSBpHURsDCbQLe2ixHtfLIke9KoQDqem9qpvjLL3ZS8pJ1OvJWStPXiFSqlB-xcwsjUzUkcVrdf-chZwVhLltTA4tEnjubvUzjwlit_T63Q_lEa7_xHfFZswZYXjutikxuWygZx7TsOsPfWUsJRfuTBXfFm5DrzJVIqjZI1hWjl8IELrQIvBIpQZfJm2bsMRu6m00?></g></svg>