<svg xmlns="http://www.w3.org/2000/svg" xmlns:xlink="http://www.w3.org/1999/xlink" version="1.1" data-diagram-type="DESCRIPTION" style="width:2203px;height:1165px;" width="2203px" height="1165px" viewBox="0 0 2203 1165" zoomAndPan="magnify" preserveAspectRatio="none" contentStyleType="text/css"><?plantuml 1.2026.8?><defs/><g font-family="sans-serif" lengthAdjust="spacing"><!--cluster ExternalLayer--><g class="cluster" data-qualified-name="ExternalLayer" id="ent0001" data-source-line="18"><path d="M686,297.4 L812.6,297.4 A9,9 0 0 1 818.6,303.4 L825.6,320.56 L1576,320.56 A6,6 0 0 1 1582,326.56 L1582,465.4 A6,6 0 0 1 1576,471.4 L686,471.4 A6,6 0 0 1 680,465.4 L680,303.4 A6,6 0 0 1 686,297.4" style="stroke:#6B6F6A;stroke-width:1.1;" fill="#F1EEE3"/><line x1="680" y1="320.56" x2="825.6" y2="320.56" style="stroke:#6B6F6A;stroke-width:1.1;"/><text x="691.8" y="312.66" fill="#1A2221" font-size="13" textLength="124.8" font-family="'JetBrains Mono'">External Systems</text></g><!--cluster NotificationInfra--><g class="cluster" data-qualified-name="ExternalLayer.NotificationInfra" id="ent0004" data-source-line="24"><path d="M710,341.4 L914.6,341.4 A9,9 0 0 1 920.6,347.4 L927.6,364.56 L1078,364.56 A6,6 0 0 1 1084,370.56 L1084,441.4 A6,6 0 0 1 1078,447.4 L710,447.4 A6,6 0 0 1 704,441.4 L704,347.4 A6,6 0 0 1 710,341.4" style="stroke:#6B6F6A;stroke-width:1.1;" fill="#F1EEE3"/><line x1="704" y1="364.56" x2="927.6" y2="364.56" style="stroke:#6B6F6A;stroke-width:1.1;"/><text x="708" y="356.66" fill="#1A2221" font-size="13" textLength="210.6" font-family="'JetBrains Mono'">Notification Infrastructure</text></g><!--cluster CoreFramework--><g class="cluster" data-qualified-name="CoreFramework" id="ent0008" data-source-line="34"><path d="M649,634.4 L760,634.4 A9,9 0 0 1 766,640.4 L773,657.56 L1085,657.56 A6,6 0 0 1 1091,663.56 L1091,1144.4 A6,6 0 0 1 1085,1150.4 L649,1150.4 A6,6 0 0 1 643,1144.4 L643,640.4 A6,6 0 0 1 649,634.4" style="stroke:#6B6F6A;stroke-width:1.1;" fill="#F1EEE3"/><line x1="643" y1="657.56" x2="773" y2="657.56" style="stroke:#6B6F6A;stroke-width:1.1;"/><text x="654.8" y="649.66" fill="#1A2221" font-size="13" textLength="109.2" font-family="'JetBrains Mono'">Core Framework</text></g><!--cluster DataProcessing--><g class="cluster" data-qualified-name="DataProcessing" id="ent0014" data-source-line="50"><path d="M1121,495.4 L1286.6,495.4 A9,9 0 0 1 1292.6,501.4 L1299.6,518.56 L1576,518.56 A6,6 0 0 1 1582,524.56 L1582,751.4 A6,6 0 0 1 1576,757.4 L1121,757.4 A6,6 0 0 1 1115,751.4 L1115,501.4 A6,6 0 0 1 1121,495.4" style="stroke:#6B6F6A;stroke-width:1.1;" fill="#F1EEE3"/><line x1="1115" y1="518.56" x2="1299.6" y2="518.56" style="stroke:#6B6F6A;stroke-width:1.1;"/><text x="1126.8" y="510.66" fill="#1A2221" font-size="13" textLength="163.8" font-family="'JetBrains Mono'">Data Processing Layer</text></g><!--cluster MLProcessing--><g class="cluster" data-qualified-name="MLProcessing" id="ent0018" data-source-line="62"><path d="M1722,503.4 L1872,503.4 A9,9 0 0 1 1878,509.4 L1885,526.56 L2182,526.56 A6,6 0 0 1 2188,532.56 L2188,882.4 A6,6 0 0 1 2182,888.4 L1722,888.4 A6,6 0 0 1 1716,882.4 L1716,509.4 A6,6 0 0 1 1722,503.4" style="stroke:#6B6F6A;stroke-width:1.1;" fill="#F1EEE3"/><line x1="1716" y1="526.56" x2="1885" y2="526.56" style="stroke:#6B6F6A;stroke-width:1.1;"/><text x="1727.8" y="518.66" fill="#1A2221" font-size="13" textLength="148.2" font-family="'JetBrains Mono'">ML Processing Layer</text></g><!--cluster AlertSystem--><g class="cluster" data-qualified-name="AlertSystem" id="ent0023" data-source-line="76"><path d="M844,11.4 L986.2,11.4 A9,9 0 0 1 992.2,17.4 L999.2,34.56 L1494,34.56 A6,6 0 0 1 1500,40.56 L1500,267.4 A6,6 0 0 1 1494,273.4 L844,273.4 A6,6 0 0 1 838,267.4 L838,17.4 A6,6 0 0 1 844,11.4" style="stroke:#6B6F6A;stroke-width:1.1;" fill="#F1EEE3"/><line x1="838" y1="34.56" x2="999.2" y2="34.56" style="stroke:#6B6F6A;stroke-width:1.1;"/><text x="849.8" y="26.66" fill="#1A2221" font-size="13" textLength="140.4" font-family="'JetBrains Mono'">Alert System Layer</text></g><!--cluster SystemHealth--><g class="cluster" data-qualified-name="SystemHealth" id="ent0028" data-source-line="90"><path d="M17,495.4 L167,495.4 A9,9 0 0 1 173,501.4 L180,518.56 L613,518.56 A6,6 0 0 1 619,524.56 L619,751.4 A6,6 0 0 1 613,757.4 L17,757.4 A6,6 0 0 1 11,751.4 L11,501.4 A6,6 0 0 1 17,495.4" style="stroke:#6B6F6A;stroke-width:1.1;" fill="#F1EEE3"/><line x1="11" y1="518.56" x2="180" y2="518.56" style="stroke:#6B6F6A;stroke-width:1.1;"/><text x="22.8" y="510.66" fill="#1A2221" font-size="13" textLength="148.2" font-family="'JetBrains Mono'">System Health Layer</text></g><!--entity ExchangeAPIs--><g class="entity" data-qualified-name="ExternalLayer.ExchangeAPIs" id="ent0002" data-source-line="20"><rect x="1327.5" y="368.9" width="230.6" height="71.48" fill="#FFB6C1" style="stroke:#000;stroke-width:1;" rx="6" ry="6"/><text x="1337.5" y="392.16" fill="#1A2221" font-size="13" textLength="101.4" font-family="'JetBrains Mono'">Exchange APIs</text><text x="1337.5" y="409.32" fill="#1A2221" font-size="13" textLength="210.6" font-family="'JetBrains Mono'">Binance • Coinbase • Kraken</text><text x="1337.5" y="426.48" fill="#1A2221" font-size="13" textLength="109.2" font-family="'JetBrains Mono'">Kucoin • Bybit</text></g><!--entity BlockchainRPCs--><g class="entity" data-qualified-name="ExternalLayer.BlockchainRPCs" id="ent0003" data-source-line="21"><rect x="1108" y="368.9" width="183.8" height="71.48" fill="#FFB6C1" style="stroke:#000;stroke-width:1;" rx="6" ry="6"/><text x="1118" y="392.16" fill="#1A2221" font-size="13" textLength="117" font-family="'JetBrains Mono'">Blockchain RPCs</text><text x="1118" y="409.32" fill="#1A2221" font-size="13" textLength="163.8" font-family="'JetBrains Mono'">Ethereum • Tron • BSC</text><text x="1118" y="426.48" fill="#1A2221" font-size="13" textLength="148.2" font-family="'JetBrains Mono'">Polygon • Avalanche</text></g><!--entity EmailSMTP--><g class="entity" data-qualified-name="ExternalLayer.NotificationInfra.EmailSMTP" id="ent0005" data-source-line="25"><rect x="970" y="377.4" width="98" height="54.32" fill="#FFB6C1" style="stroke:#000;stroke-width:1;" rx="6" ry="6"/><text x="980" y="400.66" fill="#1A2221" font-size="13" textLength="78" font-family="'JetBrains Mono'">Email SMTP</text><text x="980" y="417.82" fill="#1A2221" font-size="13" textLength="54.6" font-family="'JetBrains Mono'">Servers</text></g><!--entity SlackAPI--><g class="entity" data-qualified-name="ExternalLayer.NotificationInfra.SlackAPI" id="ent0006" data-source-line="26"><rect x="845" y="377.4" width="90.2" height="54.32" fill="#FFB6C1" style="stroke:#000;stroke-width:1;" rx="6" ry="6"/><text x="855" y="400.66" fill="#1A2221" font-size="13" textLength="70.2" font-family="'JetBrains Mono'">Slack API</text><text x="855" y="417.82" fill="#1A2221" font-size="13" textLength="62.4" font-family="'JetBrains Mono'">Webhooks</text></g><!--entity WebhookEndpoints--><g class="entity" data-qualified-name="ExternalLayer.NotificationInfra.WebhookEndpoints" id="ent0007" data-source-line="27"><rect x="720" y="377.4" width="90.2" height="54.32" fill="#FFB6C1" style="stroke:#000;stroke-width:1;" rx="6" ry="6"/><text x="730" y="400.66" fill="#1A2221" font-size="13" textLength="54.6" font-family="'JetBrains Mono'">Webhook</text><text x="730" y="417.82" fill="#1A2221" font-size="13" textLength="70.2" font-family="'JetBrains Mono'">Endpoints</text></g><!--entity EventBus--><g class="entity" data-qualified-name="CoreFramework.EventBus" id="ent0009" data-source-line="35"><rect x="659" y="801.4" width="183.8" height="71.48" fill="#ADD8E6" style="stroke:#000;stroke-width:1;" rx="6" ry="6"/><text x="669" y="824.66" fill="#1A2221" font-size="13" textLength="70.2" font-family="'JetBrains Mono'">Event Bus</text><text x="669" y="841.82" fill="#1A2221" font-size="13" textLength="163.8" font-family="'JetBrains Mono'">Async Message Passing</text><text x="669" y="858.98" fill="#1A2221" font-size="13" textLength="124.8" font-family="'JetBrains Mono'">100K+ events/sec</text></g><!--entity MasterWorkerPool--><g class="entity" data-qualified-name="CoreFramework.MasterWorkerPool" id="ent0010" data-source-line="38"><rect x="859.5" y="932.4" width="207.2" height="71.48" fill="#ADD8E6" style="stroke:#000;stroke-width:1;" rx="6" ry="6"/><text x="869.5" y="955.66" fill="#1A2221" font-size="13" textLength="140.4" font-family="'JetBrains Mono'">Master Worker Pool</text><text x="869.5" y="972.82" fill="#1A2221" font-size="13" textLength="140.4" font-family="'JetBrains Mono'">8 Priority Threads</text><text x="869.5" y="989.98" fill="#1A2221" font-size="13" textLength="187.2" font-family="'JetBrains Mono'">Critical/High/Medium/Low</text></g><!--entity TaskScheduler--><g class="entity" data-qualified-name="CoreFramework.TaskScheduler" id="ent0011" data-source-line="39"><rect x="894.5" y="801.4" width="137" height="71.48" fill="#ADD8E6" style="stroke:#000;stroke-width:1;" rx="6" ry="6"/><text x="904.5" y="824.66" fill="#1A2221" font-size="13" textLength="109.2" font-family="'JetBrains Mono'">Task Scheduler</text><text x="904.5" y="841.82" fill="#1A2221" font-size="13" textLength="117" font-family="'JetBrains Mono'">Priority Queues</text><text x="904.5" y="858.98" fill="#1A2221" font-size="13" textLength="101.4" font-family="'JetBrains Mono'">Work Stealing</text></g><!--entity AsyncIOContext--><g class="entity" data-qualified-name="CoreFramework.AsyncIOContext" id="ent0012" data-source-line="42"><rect x="761.5" y="1063.4" width="199.4" height="71.48" fill="#ADD8E6" style="stroke:#000;stroke-width:1;" rx="6" ry="6"/><text x="771.5" y="1086.66" fill="#1A2221" font-size="13" textLength="132.6" font-family="'JetBrains Mono'">Async I/O Context</text><text x="771.5" y="1103.82" fill="#1A2221" font-size="13" textLength="179.4" font-family="'JetBrains Mono'">Non-blocking Operations</text><text x="771.5" y="1120.98" fill="#1A2221" font-size="13" textLength="78" font-family="'JetBrains Mono'">Epoll/IOCP</text></g><!--entity LockFreeQueues--><g class="entity" data-qualified-name="CoreFramework.LockFreeQueues" id="ent0013" data-source-line="44"><rect x="663" y="670.4" width="176" height="71.48" fill="#ADD8E6" style="stroke:#000;stroke-width:1;" rx="6" ry="6"/><text x="673" y="693.66" fill="#1A2221" font-size="13" textLength="124.8" font-family="'JetBrains Mono'">Lock-Free Queues</text><text x="673" y="710.82" fill="#1A2221" font-size="13" textLength="148.2" font-family="'JetBrains Mono'">High-Frequency Data</text><text x="673" y="727.98" fill="#1A2221" font-size="13" textLength="156" font-family="'JetBrains Mono'">Zero-Copy Operations</text></g><!--entity AsyncDataAggregator--><g class="entity" data-qualified-name="DataProcessing.AsyncDataAggregator" id="ent0015" data-source-line="51"><rect x="1135.5" y="670.4" width="199.4" height="71.48" fill="#90EE90" style="stroke:#000;stroke-width:1;" rx="6" ry="6"/><text x="1145.5" y="693.66" fill="#1A2221" font-size="13" textLength="163.8" font-family="'JetBrains Mono'">Async Data Aggregator</text><text x="1145.5" y="710.82" fill="#1A2221" font-size="13" textLength="171.6" font-family="'JetBrains Mono'">Market Data Collection</text><text x="1145.5" y="727.98" fill="#1A2221" font-size="13" textLength="179.4" font-family="'JetBrains Mono'">Real-time Normalization</text></g><!--entity ExchangeDataSources--><g class="entity" data-qualified-name="DataProcessing.ExchangeDataSources" id="ent0016" data-source-line="54"><rect x="1374" y="539.4" width="183.8" height="71.48" fill="#90EE90" style="stroke:#000;stroke-width:1;" rx="6" ry="6"/><text x="1384" y="562.66" fill="#1A2221" font-size="13" textLength="163.8" font-family="'JetBrains Mono'">Exchange Data Sources</text><text x="1384" y="579.82" fill="#1A2221" font-size="13" textLength="124.8" font-family="'JetBrains Mono'">WebSocket + REST</text><text x="1384" y="596.98" fill="#1A2221" font-size="13" textLength="163.8" font-family="'JetBrains Mono'">Real-time Price Feeds</text></g><!--entity BlockchainDataSources--><g class="entity" data-qualified-name="DataProcessing.BlockchainDataSources" id="ent0017" data-source-line="55"><rect x="1139.5" y="539.4" width="199.4" height="71.48" fill="#90EE90" style="stroke:#000;stroke-width:1;" rx="6" ry="6"/><text x="1149.5" y="562.66" fill="#1A2221" font-size="13" textLength="179.4" font-family="'JetBrains Mono'">Blockchain Data Sources</text><text x="1149.5" y="579.82" fill="#1A2221" font-size="13" textLength="78" font-family="'JetBrains Mono'">RPC + APIs</text><text x="1149.5" y="596.98" fill="#1A2221" font-size="13" textLength="140.4" font-family="'JetBrains Mono'">On-chain Analytics</text></g><!--entity AsyncPredictionEngine--><g class="entity" data-qualified-name="MLProcessing.AsyncPredictionEngine" id="ent0019" data-source-line="63"><rect x="1839.5" y="539.4" width="199.4" height="71.48" fill="#FFFFE0" style="stroke:#000;stroke-width:1;" rx="6" ry="6"/><text x="1849.5" y="562.66" fill="#1A2221" font-size="13" textLength="179.4" font-family="'JetBrains Mono'">Async Prediction Engine</text><text x="1849.5" y="579.82" fill="#1A2221" font-size="13" textLength="117" font-family="'JetBrains Mono'">Risk Assessment</text><text x="1849.5" y="596.98" fill="#1A2221" font-size="13" textLength="156" font-family="'JetBrains Mono'">Multi-Model Ensemble</text></g><!--entity FeatureExtractor--><g class="entity" data-qualified-name="MLProcessing.FeatureExtractor" id="ent0020" data-source-line="66"><rect x="1959" y="670.4" width="176" height="71.48" fill="#FFFFE0" style="stroke:#000;stroke-width:1;" rx="6" ry="6"/><text x="1969" y="693.66" fill="#1A2221" font-size="13" textLength="132.6" font-family="'JetBrains Mono'">Feature Extractor</text><text x="1969" y="710.82" fill="#1A2221" font-size="13" textLength="156" font-family="'JetBrains Mono'">Technical Indicators</text><text x="1969" y="727.98" fill="#1A2221" font-size="13" textLength="148.2" font-family="'JetBrains Mono'">Volatility Analysis</text></g><!--entity RiskScorer--><g class="entity" data-qualified-name="MLProcessing.RiskScorer" id="ent0021" data-source-line="67"><rect x="1740" y="670.4" width="183.8" height="71.48" fill="#FFFFE0" style="stroke:#000;stroke-width:1;" rx="6" ry="6"/><text x="1750" y="693.66" fill="#1A2221" font-size="13" textLength="85.8" font-family="'JetBrains Mono'">Risk Scorer</text><text x="1750" y="710.82" fill="#1A2221" font-size="13" textLength="163.8" font-family="'JetBrains Mono'">Multi-Factor Analysis</text><text x="1750" y="727.98" fill="#1A2221" font-size="13" textLength="156" font-family="'JetBrains Mono'">Confidence Intervals</text></g><!--entity MLModels--><g class="entity" data-qualified-name="MLProcessing.MLModels" id="ent0022" data-source-line="70"><rect x="1947.5" y="801.4" width="215" height="71.48" fill="#FFFFE0" style="stroke:#000;stroke-width:1;" rx="6" ry="6"/><text x="1957.5" y="824.66" fill="#1A2221" font-size="13" textLength="70.2" font-family="'JetBrains Mono'">ML Models</text><text x="1957.5" y="841.82" fill="#1A2221" font-size="13" textLength="195" font-family="'JetBrains Mono'">RandomForest + Neural Net</text><text x="1957.5" y="858.98" fill="#1A2221" font-size="13" textLength="117" font-family="'JetBrains Mono'">Online Learning</text></g><!--entity AsyncAlertManager--><g class="entity" data-qualified-name="AlertSystem.AsyncAlertManager" id="ent0024" data-source-line="77"><rect x="1180.5" y="47.4" width="199.4" height="71.48" fill="#F08080" style="stroke:#000;stroke-width:1;" rx="6" ry="6"/><text x="1190.5" y="70.66" fill="#1A2221" font-size="13" textLength="148.2" font-family="'JetBrains Mono'">Async Alert Manager</text><text x="1190.5" y="87.82" fill="#1A2221" font-size="13" textLength="179.4" font-family="'JetBrains Mono'">Notification Processing</text><text x="1190.5" y="104.98" fill="#1A2221" font-size="13" textLength="124.8" font-family="'JetBrains Mono'">Priority Routing</text></g><!--entity TemplateEngine--><g class="entity" data-qualified-name="AlertSystem.TemplateEngine" id="ent0025" data-source-line="80"><rect x="1300" y="178.4" width="176" height="71.48" fill="#F08080" style="stroke:#000;stroke-width:1;" rx="6" ry="6"/><text x="1310" y="201.66" fill="#1A2221" font-size="13" textLength="117" font-family="'JetBrains Mono'">Template Engine</text><text x="1310" y="218.82" fill="#1A2221" font-size="13" textLength="109.2" font-family="'JetBrains Mono'">Alert Messages</text><text x="1310" y="235.98" fill="#1A2221" font-size="13" textLength="156" font-family="'JetBrains Mono'">Customizable Formats</text></g><!--entity SubscriptionManager--><g class="entity" data-qualified-name="AlertSystem.SubscriptionManager" id="ent0026" data-source-line="81"><rect x="1089" y="178.4" width="176" height="71.48" fill="#F08080" style="stroke:#000;stroke-width:1;" rx="6" ry="6"/><text x="1099" y="201.66" fill="#1A2221" font-size="13" textLength="156" font-family="'JetBrains Mono'">Subscription Manager</text><text x="1099" y="218.82" fill="#1A2221" font-size="13" textLength="124.8" font-family="'JetBrains Mono'">User Preferences</text><text x="1099" y="235.98" fill="#1A2221" font-size="13" textLength="117" font-family="'JetBrains Mono'">Channel Routing</text></g><!--entity NotificationPipelines--><g class="entity" data-qualified-name="AlertSystem.NotificationPipelines" id="ent0027" data-source-line="84"><rect x="854.5" y="178.4" width="199.4" height="71.48" fill="#F08080" style="stroke:#000;stroke-width:1;" rx="6" ry="6"/><text x="864.5" y="201.66" fill="#1A2221" font-size="13" textLength="171.6" font-family="'JetBrains Mono'">Notification Pipelines</text><text x="864.5" y="218.82" fill="#1A2221" font-size="13" textLength="179.4" font-family="'JetBrains Mono'">Email + Slack + Webhook</text><text x="864.5" y="235.98" fill="#1A2221" font-size="13" textLength="132.6" font-family="'JetBrains Mono'">Reliable Delivery</text></g><!--entity HealthMonitor--><g class="entity" data-qualified-name="SystemHealth.HealthMonitor" id="ent0029" data-source-line="91"><rect x="427" y="539.4" width="176" height="71.48" fill="#D3D3D3" style="stroke:#000;stroke-width:1;" rx="6" ry="6"/><text x="437" y="562.66" fill="#1A2221" font-size="13" textLength="109.2" font-family="'JetBrains Mono'">Health Monitor</text><text x="437" y="579.82" fill="#1A2221" font-size="13" textLength="124.8" font-family="'JetBrains Mono'">Component Status</text><text x="437" y="596.98" fill="#1A2221" font-size="13" textLength="156" font-family="'JetBrains Mono'">Real-time Monitoring</text></g><!--entity PerformanceProfiler--><g class="entity" data-qualified-name="SystemHealth.PerformanceProfiler" id="ent0030" data-source-line="94"><rect x="216" y="539.4" width="176" height="71.48" fill="#D3D3D3" style="stroke:#000;stroke-width:1;" rx="6" ry="6"/><text x="226" y="562.66" fill="#1A2221" font-size="13" textLength="156" font-family="'JetBrains Mono'">Performance Profiler</text><text x="226" y="579.82" fill="#1A2221" font-size="13" textLength="124.8" font-family="'JetBrains Mono'">Latency Tracking</text><text x="226" y="596.98" fill="#1A2221" font-size="13" textLength="156" font-family="'JetBrains Mono'">Bottleneck Detection</text></g><!--entity CircuitBreakers--><g class="entity" data-qualified-name="SystemHealth.CircuitBreakers" id="ent0031" data-source-line="95"><rect x="35.5" y="539.4" width="144.8" height="71.48" fill="#D3D3D3" style="stroke:#000;stroke-width:1;" rx="6" ry="6"/><text x="45.5" y="562.66" fill="#1A2221" font-size="13" textLength="124.8" font-family="'JetBrains Mono'">Circuit Breakers</text><text x="45.5" y="579.82" fill="#1A2221" font-size="13" textLength="117" font-family="'JetBrains Mono'">Fault Tolerance</text><text x="45.5" y="596.98" fill="#1A2221" font-size="13" textLength="101.4" font-family="'JetBrains Mono'">Auto-Recovery</text></g><!--entity SystemMetrics--><g class="entity" data-qualified-name="SystemHealth.SystemMetrics" id="ent0032" data-source-line="98"><rect x="442.5" y="670.4" width="144.8" height="71.48" fill="#D3D3D3" style="stroke:#000;stroke-width:1;" rx="6" ry="6"/><text x="452.5" y="693.66" fill="#1A2221" font-size="13" textLength="109.2" font-family="'JetBrains Mono'">System Metrics</text><text x="452.5" y="710.82" fill="#1A2221" font-size="13" textLength="109.2" font-family="'JetBrains Mono'">Resource Usage</text><text x="452.5" y="727.98" fill="#1A2221" font-size="13" textLength="124.8" font-family="'JetBrains Mono'">Throughput Stats</text></g><!--link ExchangeAPIs to ExchangeDataSources--><g class="link" data-entity-1="ent0002" data-entity-2="ent0016" id="lnk33" data-source-line="106" data-link-type="dependency"><path d="M1466,440.14 C1466,469.24 1466,505.12 1466,534.2" style="stroke:#000;stroke-width:2;" fill="none" id="ExchangeAPIs-to-ExchangeDataSources"/><polygon points="1466,539.2,1470,530.2,1466,534.2,1462,530.2,1466,539.2" fill="#000" style="stroke:#000;stroke-width:2;stroke-linejoin:miter;stroke-miterlimit:10;"/><text x="1373.84" y="454.264" fill="#000" font-size="13" textLength="74.794" font-family="Verdana">Market Data</text><text x="1357" y="469.993" fill="#000" font-size="13" textLength="108.475" font-family="Verdana">WebSocket/REST</text><text x="1364.379" y="485.723" fill="#000" font-size="13" textLength="93.717" font-family="Verdana">100K msgs/sec</text></g><!--link BlockchainRPCs to BlockchainDataSources--><g class="link" data-entity-1="ent0003" data-entity-2="ent0017" id="lnk34" data-source-line="107" data-link-type="dependency"><path d="M1215.75,440.14 C1215.75,469.24 1215.75,505.12 1215.75,534.2" style="stroke:#000;stroke-width:2;" fill="none" id="BlockchainRPCs-to-BlockchainDataSources"/><polygon points="1215.75,539.2,1219.75,530.2,1215.75,534.2,1211.75,530.2,1215.75,539.2" fill="#000" style="stroke:#000;stroke-width:2;stroke-linejoin:miter;stroke-miterlimit:10;"/><text x="1126.75" y="454.264" fill="#000" font-size="13" textLength="88.734" font-family="Verdana">On-chain Data</text><text x="1141.229" y="469.993" fill="#000" font-size="13" textLength="59.776" font-family="Verdana">RPC Calls</text><text x="1131.536" y="485.723" fill="#000" font-size="13" textLength="79.162" font-family="Verdana">Block Events</text></g><!--link AsyncDataAggregator to EventBus--><g class="link" data-entity-1="ent0015" data-entity-2="ent0009" id="lnk35" data-source-line="110" data-link-type="dependency"><path d="M1135.44,718.4 C1022.03,718.4 852.25,718.4 852.25,718.4 C852.25,718.4 852.25,825.4 852.25,825.4 C852.25,825.4 853.84,825.4 848.26,825.4" style="stroke:#000;stroke-width:2;" fill="none" id="AsyncDataAggregator-to-EventBus"/><polygon points="843.26,825.4,852.26,829.4,848.26,825.4,852.26,821.4,843.26,825.4" fill="#000" style="stroke:#000;stroke-width:2;stroke-linejoin:miter;stroke-miterlimit:10;"/><text x="936.85" y="731.994" fill="#000" font-size="13" textLength="154.121" font-family="Verdana">MARKET_DATA_UPDATE</text><text x="993.163" y="747.723" fill="#000" font-size="13" textLength="41.495" font-family="Verdana">Events</text></g><!--link AsyncDataAggregator to LockFreeQueues--><g class="link" data-entity-1="ent0015" data-entity-2="ent0013" id="lnk36" data-source-line="111" data-link-type="dependency"><path d="M1135.3,694.4 C1048.13,694.4 927.76,694.4 844.19,694.4" style="stroke:#000;stroke-width:2;" fill="none" id="AsyncDataAggregator-to-LockFreeQueues"/><polygon points="839.19,694.4,848.19,698.4,844.19,694.4,848.19,690.4,839.19,694.4" fill="#000" style="stroke:#000;stroke-width:2;stroke-linejoin:miter;stroke-miterlimit:10;"/><text x="880.402" y="674.994" fill="#000" font-size="13" textLength="94.447" font-family="Verdana">High-Freq Data</text><text x="868.24" y="690.723" fill="#000" font-size="13" textLength="118.771" font-family="Verdana">Zero-Copy Storage</text></g><!--link ExchangeDataSources to AsyncDataAggregator--><g class="link" data-entity-1="ent0016" data-entity-2="ent0015" id="lnk37" data-source-line="112" data-link-type="dependency"><path d="M1466,610.49 C1466,649.43 1466,706.4 1466,706.4 C1466,706.4 1402.16,706.4 1339.64,706.4" style="stroke:#000;stroke-width:2;" fill="none" id="ExchangeDataSources-to-AsyncDataAggregator"/><polygon points="1334.64,706.4,1343.64,710.4,1339.64,706.4,1343.64,702.4,1334.64,706.4" fill="#000" style="stroke:#000;stroke-width:2;stroke-linejoin:miter;stroke-miterlimit:10;"/><text x="1343.28" y="686.994" fill="#000" font-size="13" textLength="104.755" font-family="Verdana">Raw Market Data</text><text x="1354.357" y="702.723" fill="#000" font-size="13" textLength="82.602" font-family="Verdana">Price/Volume</text></g><!--link BlockchainDataSources to AsyncDataAggregator--><g class="link" data-entity-1="ent0017" data-entity-2="ent0015" id="lnk38" data-source-line="113" data-link-type="dependency"><path d="M1237,610.7 C1237,629.18 1237,646.67 1237,665.15" style="stroke:#000;stroke-width:2;" fill="none" id="BlockchainDataSources-to-AsyncDataAggregator"/><polygon points="1237,670.15,1241,661.15,1237,665.15,1233,661.15,1237,670.15" fill="#000" style="stroke:#000;stroke-width:2;stroke-linejoin:miter;stroke-miterlimit:10;"/><text x="1137" y="621.014" fill="#000" font-size="13" textLength="99.144" font-family="Verdana">Blockchain Data</text><text x="1146.775" y="636.743" fill="#000" font-size="13" textLength="79.593" font-family="Verdana">Transactions</text></g><!--link EventBus to MasterWorkerPool--><g class="link" data-entity-1="ent0009" data-entity-2="ent0010" id="lnk39" data-source-line="116" data-link-type="dependency"><path d="M843.23,849.4 C862.45,849.4 877,849.4 877,849.4 C877,849.4 877,892.44 877,927.35" style="stroke:#000;stroke-width:2;" fill="none" id="EventBus-to-MasterWorkerPool"/><polygon points="877,932.35,881,923.35,877,927.35,873,923.35,877,932.35" fill="#000" style="stroke:#000;stroke-width:2;stroke-linejoin:miter;stroke-miterlimit:10;"/><text x="771.628" y="887.584" fill="#000" font-size="13" textLength="103.556" font-family="Verdana">Task Distribution</text><text x="770" y="903.313" fill="#000" font-size="13" textLength="106.812" font-family="Verdana">Event Processing</text></g><!--link TaskScheduler to MasterWorkerPool--><g class="link" data-entity-1="ent0011" data-entity-2="ent0010" id="lnk40" data-source-line="117" data-link-type="dependency"><path d="M963,872.7 C963,891.18 963,908.67 963,927.15" style="stroke:#000;stroke-width:2;" fill="none" id="TaskScheduler-to-MasterWorkerPool"/><polygon points="963,932.15,967,923.15,963,927.15,959,923.15,963,932.15" fill="#000" style="stroke:#000;stroke-width:2;stroke-linejoin:miter;stroke-miterlimit:10;"/><text x="964" y="883.014" fill="#000" font-size="13" textLength="116.029" font-family="Verdana">Priority Scheduling</text><text x="979.158" y="898.743" fill="#000" font-size="13" textLength="85.712" font-family="Verdana">Work Stealing</text></g><!--link MasterWorkerPool to AsyncIOContext--><g class="link" data-entity-1="ent0010" data-entity-2="ent0012" id="lnk41" data-source-line="118" data-link-type="dependency"><path d="M910,1003.7 C910,1022.18 910,1039.67 910,1058.15" style="stroke:#000;stroke-width:2;" fill="none" id="MasterWorkerPool-to-AsyncIOContext"/><polygon points="910,1063.15,914,1054.15,910,1058.15,906,1054.15,910,1063.15" fill="#000" style="stroke:#000;stroke-width:2;stroke-linejoin:miter;stroke-miterlimit:10;"/><text x="813.598" y="1014.014" fill="#000" font-size="13" textLength="89.185" font-family="Verdana">I/O Operations</text><text x="807" y="1029.743" fill="#000" font-size="13" textLength="102.381" font-family="Verdana">Async Execution</text></g><!--link LockFreeQueues to EventBus--><g class="link" data-entity-1="ent0013" data-entity-2="ent0009" id="lnk42" data-source-line="119" data-link-type="dependency"><path d="M707,741.7 C707,760.18 707,777.67 707,796.15" style="stroke:#000;stroke-width:2;" fill="none" id="LockFreeQueues-to-EventBus"/><polygon points="707,801.15,711,792.15,707,796.15,703,792.15,707,801.15" fill="#000" style="stroke:#000;stroke-width:2;stroke-linejoin:miter;stroke-miterlimit:10;"/><text x="621.134" y="752.014" fill="#000" font-size="13" textLength="63.413" font-family="Verdana">Lock-Free</text><text x="599" y="767.743" fill="#000" font-size="13" textLength="107.682" font-family="Verdana">Message Passing</text></g><!--link EventBus to AsyncPredictionEngine--><g class="link" data-entity-1="ent0009" data-entity-2="ent0019" id="lnk43" data-source-line="122" data-link-type="dependency"><path d="M751,801.12 C751,790.38 751,781.4 751,781.4 C751,781.4 1935.75,781.4 1935.75,781.4 C1935.75,781.4 1935.75,675.03 1935.75,615.87" style="stroke:#000;stroke-width:2;" fill="none" id="EventBus-to-AsyncPredictionEngine"/><polygon points="1935.75,610.87,1931.75,619.87,1935.75,615.87,1939.75,619.87,1935.75,610.87" fill="#000" style="stroke:#000;stroke-width:2;stroke-linejoin:miter;stroke-miterlimit:10;"/><text x="1302.78" y="794.994" fill="#000" font-size="13" textLength="115.705" font-family="Verdana">Event Notifications</text><text x="1311.559" y="810.723" fill="#000" font-size="13" textLength="98.147" font-family="Verdana">Market Updates</text></g><!--link AsyncPredictionEngine to FeatureExtractor--><g class="link" data-entity-1="ent0019" data-entity-2="ent0020" id="lnk44" data-source-line="123" data-link-type="dependency"><path d="M1998.75,610.7 C1998.75,629.18 1998.75,646.67 1998.75,665.15" style="stroke:#000;stroke-width:2;" fill="none" id="AsyncPredictionEngine-to-FeatureExtractor"/><polygon points="1998.75,670.15,2002.75,661.15,1998.75,665.15,1994.75,661.15,1998.75,670.15" fill="#000" style="stroke:#000;stroke-width:2;stroke-linejoin:miter;stroke-miterlimit:10;"/><text x="2000.969" y="621.014" fill="#000" font-size="13" textLength="112.284" font-family="Verdana">Feature Extraction</text><text x="1999.75" y="636.743" fill="#000" font-size="13" textLength="114.721" font-family="Verdana">Technical Analysis</text></g><!--link AsyncPredictionEngine to MLModels--><g class="link" data-entity-1="ent0019" data-entity-2="ent0022" id="lnk45" data-source-line="124" data-link-type="dependency"><path d="M1953.25,610.51 C1953.25,660.6 1953.25,746.32 1953.25,796.37" style="stroke:#000;stroke-width:2;" fill="none" id="AsyncPredictionEngine-to-MLModels"/><polygon points="1953.25,801.37,1957.25,792.37,1953.25,796.37,1949.25,792.37,1953.25,801.37" fill="#000" style="stroke:#000;stroke-width:2;stroke-linejoin:miter;stroke-miterlimit:10;"/><text x="1933.374" y="719.534" fill="#000" font-size="13" textLength="91.355" font-family="Verdana">Risk Prediction</text><text x="1928.75" y="735.263" fill="#000" font-size="13" textLength="100.604" font-family="Verdana">Model Inference</text></g><!--link AsyncPredictionEngine to RiskScorer--><g class="link" data-entity-1="ent0019" data-entity-2="ent0021" id="lnk46" data-source-line="125" data-link-type="dependency"><path d="M1881.75,610.7 C1881.75,629.18 1881.75,646.67 1881.75,665.15" style="stroke:#000;stroke-width:2;" fill="none" id="AsyncPredictionEngine-to-RiskScorer"/><polygon points="1881.75,670.15,1885.75,661.15,1881.75,665.15,1877.75,661.15,1881.75,670.15" fill="#000" style="stroke:#000;stroke-width:2;stroke-linejoin:miter;stroke-miterlimit:10;"/><text x="1774.756" y="621.014" fill="#000" font-size="13" textLength="104.063" font-family="Verdana">Risk Assessment</text><text x="1772.75" y="636.743" fill="#000" font-size="13" textLength="108.075" font-family="Verdana">Score Calculation</text></g><!--link FeatureExtractor to MLModels--><g class="link" data-entity-1="ent0020" data-entity-2="ent0022" id="lnk47" data-source-line="126" data-link-type="dependency"><path d="M2047,741.7 C2047,760.18 2047,777.67 2047,796.15" style="stroke:#000;stroke-width:2;" fill="none" id="FeatureExtractor-to-MLModels"/><polygon points="2047,801.15,2051,792.15,2047,796.15,2043,792.15,2047,801.15" fill="#000" style="stroke:#000;stroke-width:2;stroke-linejoin:miter;stroke-miterlimit:10;"/><text x="1945.838" y="752.014" fill="#000" font-size="13" textLength="98.401" font-family="Verdana">Feature Vectors</text><text x="1944" y="767.743" fill="#000" font-size="13" textLength="102.077" font-family="Verdana">Normalized Data</text></g><!--link RiskScorer to EventBus--><g class="link" data-entity-1="ent0021" data-entity-2="ent0009" id="lnk48" data-source-line="127" data-link-type="dependency"><path d="M1832,741.68 C1832,752.42 1832,761.4 1832,761.4 C1832,761.4 795,761.4 795,761.4 C795,761.4 795,776.78 795,796.36" style="stroke:#000;stroke-width:2;" fill="none" id="RiskScorer-to-EventBus"/><polygon points="795,801.36,799,792.36,795,796.36,791,792.36,795,801.36" fill="#000" style="stroke:#000;stroke-width:2;stroke-linejoin:miter;stroke-miterlimit:10;"/><text x="1130.38" y="774.994" fill="#000" font-size="13" textLength="172.51" font-family="Verdana">RISK_THRESHOLD_BREACH</text><text x="1195.888" y="790.723" fill="#000" font-size="13" textLength="41.495" font-family="Verdana">Events</text></g><!--link EventBus to AsyncAlertManager--><g class="link" data-entity-1="ent0009" data-entity-2="ent0024" id="lnk49" data-source-line="130" data-link-type="dependency"><path d="M658.83,819.4 C642.72,819.4 631,819.4 631,819.4 C631,819.4 631,71.4 631,71.4 C631,71.4 993.44,71.4 1175.37,71.4" style="stroke:#000;stroke-width:2;" fill="none" id="EventBus-to-AsyncAlertManager"/><polygon points="1180.37,71.4,1171.37,67.4,1175.37,71.4,1171.37,75.4,1180.37,71.4" fill="#000" style="stroke:#000;stroke-width:2;stroke-linejoin:miter;stroke-miterlimit:10;"/><text x="546" y="165.224" fill="#000" font-size="13" textLength="84.214" font-family="Verdana">Alert Triggers</text><text x="552.776" y="180.953" fill="#000" font-size="13" textLength="70.662" font-family="Verdana">Risk Events</text></g><!--link AsyncAlertManager to TemplateEngine--><g class="link" data-entity-1="ent0024" data-entity-2="ent0025" id="lnk50" data-source-line="131" data-link-type="dependency"><path d="M1339.75,118.7 C1339.75,137.18 1339.75,154.67 1339.75,173.15" style="stroke:#000;stroke-width:2;" fill="none" id="AsyncAlertManager-to-TemplateEngine"/><polygon points="1339.75,178.15,1343.75,169.15,1339.75,173.15,1335.75,169.15,1339.75,178.15" fill="#000" style="stroke:#000;stroke-width:2;stroke-linejoin:miter;stroke-miterlimit:10;"/><text x="1340.75" y="129.014" fill="#000" font-size="13" textLength="125.912" font-family="Verdana">Message Formatting</text><text x="1345.907" y="144.743" fill="#000" font-size="13" textLength="115.597" font-family="Verdana">Custom Templates</text></g><!--link AsyncAlertManager to SubscriptionManager--><g class="link" data-entity-1="ent0024" data-entity-2="ent0026" id="lnk51" data-source-line="132" data-link-type="dependency"><path d="M1222.75,118.7 C1222.75,137.18 1222.75,154.67 1222.75,173.15" style="stroke:#000;stroke-width:2;" fill="none" id="AsyncAlertManager-to-SubscriptionManager"/><polygon points="1222.75,178.15,1226.75,169.15,1222.75,173.15,1218.75,169.15,1222.75,178.15" fill="#000" style="stroke:#000;stroke-width:2;stroke-linejoin:miter;stroke-miterlimit:10;"/><text x="1112.413" y="129.014" fill="#000" font-size="13" textLength="107.853" font-family="Verdana">User Preferences</text><text x="1110.75" y="144.743" fill="#000" font-size="13" textLength="111.179" font-family="Verdana">Channel Selection</text></g><!--link AsyncAlertManager to NotificationPipelines--><g class="link" data-entity-1="ent0024" data-entity-2="ent0027" id="lnk52" data-source-line="133" data-link-type="dependency"><path d="M1180.42,95.4 C1084.55,95.4 954,95.4 954,95.4 C954,95.4 954,138.44 954,173.35" style="stroke:#000;stroke-width:2;" fill="none" id="AsyncAlertManager-to-NotificationPipelines"/><polygon points="954,178.35,958,169.35,954,173.35,950,169.35,954,178.35" fill="#000" style="stroke:#000;stroke-width:2;stroke-linejoin:miter;stroke-miterlimit:10;"/><text x="900.74" y="75.994" fill="#000" font-size="13" textLength="124.554" font-family="Verdana">Notification Delivery</text><text x="919.751" y="91.723" fill="#000" font-size="13" textLength="86.531" font-family="Verdana">Multi-Channel</text></g><!--link NotificationPipelines to EmailSMTP--><g class="link" data-entity-1="ent0027" data-entity-2="ent0005" id="lnk53" data-source-line="136" data-link-type="dependency"><path d="M1011.75,249.73 C1011.75,286.81 1011.75,338.88 1011.75,372.35" style="stroke:#000;stroke-width:2;" fill="none" id="NotificationPipelines-to-EmailSMTP"/><polygon points="1011.75,377.35,1015.75,368.35,1011.75,372.35,1007.75,368.35,1011.75,377.35" fill="#000" style="stroke:#000;stroke-width:2;stroke-linejoin:miter;stroke-miterlimit:10;"/><text x="920.75" y="294.134" fill="#000" font-size="13" textLength="90.778" font-family="Verdana">SMTP Delivery</text><text x="930.059" y="309.863" fill="#000" font-size="13" textLength="72.16" font-family="Verdana">Email Alerts</text></g><!--link NotificationPipelines to SlackAPI--><g class="link" data-entity-1="ent0027" data-entity-2="ent0006" id="lnk54" data-source-line="137" data-link-type="dependency"><path d="M894.75,249.73 C894.75,286.81 894.75,338.88 894.75,372.35" style="stroke:#000;stroke-width:2;" fill="none" id="NotificationPipelines-to-SlackAPI"/><polygon points="894.75,377.35,898.75,368.35,894.75,372.35,890.75,368.35,894.75,377.35" fill="#000" style="stroke:#000;stroke-width:2;stroke-linejoin:miter;stroke-miterlimit:10;"/><text x="766.584" y="294.134" fill="#000" font-size="13" textLength="123.976" font-family="Verdana">Slack Bot Messages</text><text x="762.75" y="309.863" fill="#000" font-size="13" textLength="131.644" font-family="Verdana">Channel Notifications</text></g><!--link NotificationPipelines to WebhookEndpoints--><g class="link" data-entity-1="ent0027" data-entity-2="ent0007" id="lnk55" data-source-line="138" data-link-type="dependency"><path d="M854.24,214.4 C808.81,214.4 765,214.4 765,214.4 C765,214.4 765,319.64 765,372.18" style="stroke:#000;stroke-width:2;" fill="none" id="NotificationPipelines-to-WebhookEndpoints"/><polygon points="765,377.18,769,368.18,765,372.18,761,368.18,765,377.18" fill="#000" style="stroke:#000;stroke-width:2;stroke-linejoin:miter;stroke-miterlimit:10;"/><text x="660" y="231.764" fill="#000" font-size="13" textLength="104.025" font-family="Verdana">HTTP Webhooks</text><text x="669.915" y="247.493" fill="#000" font-size="13" textLength="84.195" font-family="Verdana">API Callbacks</text></g><!--link HealthMonitor to SystemMetrics--><g class="link" data-entity-1="ent0029" data-entity-2="ent0032" id="lnk56" data-source-line="141" data-link-type="dependency"><path d="M515,610.7 C515,629.18 515,646.67 515,665.15" style="stroke:#000;stroke-width:2;" fill="none" id="HealthMonitor-to-SystemMetrics"/><polygon points="515,670.15,519,661.15,515,665.15,511,661.15,515,670.15" fill="#000" style="stroke:#000;stroke-width:2;stroke-linejoin:miter;stroke-miterlimit:10;"/><text x="521.84" y="621.014" fill="#000" font-size="13" textLength="127.956" font-family="Verdana">Resource Monitoring</text><text x="516" y="636.743" fill="#000" font-size="13" textLength="139.636" font-family="Verdana">CPU/Memory/Network</text></g><!--link PerformanceProfiler to SystemMetrics--><g class="link" data-entity-1="ent0030" data-entity-2="ent0032" id="lnk57" data-source-line="142" data-link-type="dependency"><path d="M333.33,610.49 C333.33,649.43 333.33,706.4 333.33,706.4 C333.33,706.4 386.82,706.4 437.42,706.4" style="stroke:#000;stroke-width:2;" fill="none" id="PerformanceProfiler-to-SystemMetrics"/><polygon points="442.42,706.4,433.42,702.4,437.42,706.4,433.42,710.4,442.42,706.4" fill="#000" style="stroke:#000;stroke-width:2;stroke-linejoin:miter;stroke-miterlimit:10;"/><text x="209.92" y="686.994" fill="#000" font-size="13" textLength="129.213" font-family="Verdana">Performance Metrics</text><text x="211.729" y="702.723" fill="#000" font-size="13" textLength="125.595" font-family="Verdana">Latency/Throughput</text></g><!--link SystemMetrics to EventBus--><g class="link" data-entity-1="ent0032" data-entity-2="ent0009" id="lnk58" data-source-line="143" data-link-type="dependency"><path d="M515,741.49 C515,780.43 515,837.4 515,837.4 C515,837.4 587.55,837.4 653.74,837.4" style="stroke:#000;stroke-width:2;" fill="none" id="SystemMetrics-to-EventBus"/><polygon points="658.74,837.4,649.74,833.4,653.74,837.4,649.74,841.4,658.74,837.4" fill="#000" style="stroke:#000;stroke-width:2;stroke-linejoin:miter;stroke-miterlimit:10;"/><text x="375.91" y="817.994" fill="#000" font-size="13" textLength="162.36" font-family="Verdana">SYSTEM_HEALTH_CHECK</text><text x="436.343" y="833.723" fill="#000" font-size="13" textLength="41.495" font-family="Verdana">Events</text></g><!--link CircuitBreakers to EventBus--><g class="link" data-entity-1="ent0031" data-entity-2="ent0009" id="lnk59" data-source-line="146" data-link-type="dependency"><path d="M132.17,610.43 C132.17,685.9 132.17,855.4 132.17,855.4 C132.17,855.4 481.18,855.4 653.69,855.4" style="stroke:#000;stroke-width:2;" fill="none" id="CircuitBreakers-to-EventBus"/><polygon points="658.69,855.4,649.69,851.4,653.69,855.4,649.69,859.4,658.69,855.4" fill="#000" style="stroke:#000;stroke-width:2;stroke-linejoin:miter;stroke-miterlimit:10;"/><text x="172.275" y="835.994" fill="#000" font-size="13" textLength="95.513" font-family="Verdana">Fault Tolerance</text><text x="167.94" y="851.723" fill="#000" font-size="13" textLength="104.184" font-family="Verdana">Failure Detection</text></g><!--link CircuitBreakers to AsyncIOContext--><g class="link" data-entity-1="ent0031" data-entity-2="ent0012" id="lnk60" data-source-line="147" data-link-type="dependency"><path d="M83.83,610.54 C83.83,728.59 83.83,1099.4 83.83,1099.4 C83.83,1099.4 546.68,1099.4 756.39,1099.4" style="stroke:#000;stroke-width:2;" fill="none" id="CircuitBreakers-to-AsyncIOContext"/><polygon points="761.39,1099.4,752.39,1095.4,756.39,1099.4,752.39,1103.4,761.39,1099.4" fill="#000" style="stroke:#000;stroke-width:2;stroke-linejoin:miter;stroke-miterlimit:10;"/><text x="69.18" y="1079.994" fill="#000" font-size="13" textLength="108.215" font-family="Verdana">Failure Protection</text><text x="85.57" y="1095.723" fill="#000" font-size="13" textLength="75.436" font-family="Verdana">Circuit State</text></g><!--link PerformanceProfiler to LockFreeQueues--><g class="link" data-entity-1="ent0030" data-entity-2="ent0013" id="lnk61" data-source-line="150" data-link-type="dependency"><path d="M274.67,610.72 C274.67,626.01 274.67,640.4 274.67,640.4 C274.67,640.4 691.5,640.4 691.5,640.4 C691.5,640.4 691.5,649.79 691.5,665.08" style="stroke:#000;stroke-width:2;" fill="none" id="PerformanceProfiler-to-LockFreeQueues"/><polygon points="691.5,670.08,695.5,661.08,691.5,665.08,687.5,661.08,691.5,670.08" fill="#000" style="stroke:#000;stroke-width:2;stroke-linejoin:miter;stroke-miterlimit:10;"/><text x="393.546" y="653.994" fill="#000" font-size="13" textLength="71.57" font-family="Verdana">Profile Data</text><text x="376.08" y="669.723" fill="#000" font-size="13" textLength="106.501" font-family="Verdana">Latency Tracking</text></g><?plantuml-src jLh_Rjiu4lxVJy7p0jqKHSw9qsQtGLj0bgLDBdRiivtsUiqYa6N65YoJNf9gwbiKs6VPHxidkHbIFoXPokvXw_nHmnHdXZFyPkORkNzJAxgXP1i74MiflYMAapbNYc_88X8qL15dBRcEs3OGmOQ4VBFbZ38rLRkO4jmGi6LChIrnnAZQRIdXGgrudIpvjKNWhnU4wwNW2LkuFERYpHllYwA21V6xTsGGBLTg7B5r_KwN2vhjwiK9hT_L3rIGxVf9KChgjmq7sQQFD8xvO_qk9wP2PHl1VX3NxxkaGQnMXTbWP_PniQ12xo6z68HQNrkjxzz-qx_MzsJWVFGcvEI2UF-QUPCRPq2c7wSpRpWbHwD4oMX1IPzkALjG5aPKFl_cHzY2Qy6IaZR9RfDCTrBHZMoJGEQBWs171IbTkG65uaiAa1JfL_pxv7q9Lu0oIfpnbRnZlOW5BAJalx_zJbmUiNaWpPTh4QmfksFNIGZBUgctcqVgPsFPA44T9SE5dLxCmpNi0jd9s0LB7fw49XkjQYPugdFgth4nZtVBTC7v7CHmeXNLXWejg6JVr5Vzh_ud3zODLz5350QORUIAFOX0Af64AX5KXyr-hX_NXSx4QXD44FBXR7p7fbHyfa8Qzt4Tbnjydo8cCS1tx0EThpXV6pcz3iiDOkbU21LRR27eoaYbo_bYNHGEYF_J2-AE9Xxn9yxG-p2QN9CZ7rFKnFSP6GcuB8Ym_dx87C0wHNmeVlIHYxM-IbpALqXUoimLVl8-Otti9G0-H-vOI8PKIjGr3gICsFAEdPwSNByW5FV9ZgIXkLty2bAvlW9ZTGar17Z1oWSu0NoCEO_ls8zaB28k8hKZivMWmGAEuC9NG5tSkOHQrXdIHPHiEWF-g6qQ9KO7gYZRrdPcWLoJASHwaK3rXAJ9BFmpeGa50oXDfWfA9lYcjQ98Bb5MQINE9nESgyu8uiaK_QBks0rdntFCFL15HbjgRXUpUClZk7CrSiVQWXQ5RqQk9cAV1g3as8U6aPyJ_SULNnAecpk2ZUME_PiAVkpoxSwofYsWF8eRwSB20H7VlI1zP-QGyMJaUjFfrSrFv0YQJMmQE43UMIu5NHuSy1WP018FgOOhqNLUunwVM0_oxlohVQ5QF3ig1yGC0u2NCkk5FtTi0f0vLX4mbnikDW2V_sZNYWj6YK9HRkxflCWRZROtvOa8DKhfV0fN2kTuGIRUT6QR1qX3A_8fNSXIcq4DgOAoyMgdAPk2bW56J9yRiMEpnO6okOD4b9N-qcZZeCNrx88C1oMWNK4cnN6qfDYLdq58e524XqOQdg4EPyD12MMQt9KmLXoFU6m9P1MY7a6TSgG4gGqKKe1T4gleUCWND8PDacxcCIsmLMWm2b8pJsFBfm6sSsH08WWrk6SqN36ihz3o5zZTkO1hVyzZm7ACPL9Vl8pClQSASddRghQWlPY6K6j4ve5lTcPweA9pzX0jz4NXhGbWBaOx2XjPMwzTSY7WEY28qe0j-CQ7tH9pueOcG8VXGo5eaV-J0Gq4oshwS604Cyq71EVB2-8ClCaifRtagCIidW7vZIFWHBj38bDF2YdhjO2fbzFLOfmeGTD83WC6YWHsDEli1QgjFZhXYSgYh5Le3Qc2mihJo9pH3On_YkRfa1x3C0y4JI9X7eGI2rb0VAotAStB9FCqiEqPMfdCPIYYhNOXT-nM8kqGz07ODTDrpuMYoI3PR8TisNgNR7YMWnLjAU8Gkxycn2yCaONFdB5EO8VsACF4prMcdMknp1uGkwykCjHUUivWTacEXfn5aBzOoR2iyeS8UT8XiPlYqmon5dZDUhfi3RafVDC7wNcnp6IZ_bH1rP9snooSqW4tekcYfVffp8wfU40WOY4pWK5S3G2BoCzcK27NEbDwNAcOCWfNtwVAi0TjrbAGoLUDQqDk9C8a0aeEb1Y8BdZY1r1QoOo314f3kYIA7qzeo7CGfKAPJ5Mn3Tiqu4EgW4ZeE4dTqSaj9X_qY9NWoNArJKmeqw5C2wKojlQ3eFCzrDChrnaOXkaFHX_8qOnlZ_ly4RW9Z58H1XPQqxS79bZFNoCeRhYI1cMhDCw_VVkkbdXTaBP582qYrp4q3cSfif5BFKYrMvN97RNMaotGcvCpenbvcnl4s1orY9d8P1izA4wDFfH7mbOTMTNkP1CT-k1ChhtPFOR__dOC7nwKjLH_atnb1W4j-GopDxvCGGZ0rcxLnH2LrHa1ZPFWaPJYgybm1mXCig5sEF-alWeh1l13Xib09wq9PJbuXi8WDdnyRPU734tiJQUWNu-Z_GW6_sYUc3d2pDj5RsstoWDeawgy0wTRTR4fJRFjrfvSxdenVO8g76BjSTLG0UyB3VKPswtALLRHaK-hGFhABmkAa07kIdov7AjwKWkgJNJibYZpaUnsku1gco5mJnhrxZ5MK5cXmVeI2XwS4TMdjEPi4X68bBVO1OVJbFsAfSpYAJqMuyqqsIE0VeGv7IPnO2vYpv_gSJBdtjFGSFbiEAKBZUXsop9QlSV9rVJwVdO9bUboDEZVzoQUuruMYGvN2LS85sdJovfxB350K6kspqIqNEhsfHqjLO-I1Egfq3giG2cm3FbJ6ks65UQR6xNLqJXGsSm1fpGTyviqrdEqYyfhr8pMPRDGgbv7iaJH8QPPasdLgzPNbRz01KFwip1WEAPM2c5erf6_J4KLcey2Fx69TXg1KiOzfN3lFIlM-HcSBNk72-K4p65dceCv0wConxCuvf4hk9J7kbKzRvM9cJv-YNOWP3EoKYW19yQtdI7TSB7hm4IettkswjXMhKQRr-MSAALrdO8BjLjboMek6HvzRtZqlNlfkTUbJAfmk9BdM2PJflYyLMLoLKDxPD079609oDbckrR7VXl810lh4CgKV2Bpe_hWfVZaGM-CxpuBI1-d3RPAcC56yNlTlFpJ5b7OZU4HU6_jagjWmHyHFWz1BEqV0bDHmU0mfrthmO8-ODXySFu6MZbf_uD2TA3jI_I9j-ktJg6CajEp-eVcXD-TEjrkzzJQuWZ17zE7vxrp_zofFfojed0D-IJ9wT_t9FzGTN6mRjsZFt8l__rKppQLtnB9TtxFT_ppLldNmyoFRBNim5TBEuF6T135sRnOh_lKyxop_qit8Vk1DclcPsQcssZ5DzLWtpk34_XL-oSdvsVdRgsbhtKNykPDWBy5foFklf5NVjTpgaQw_W_zLzsoaNIjmSY2ibsJ3R_dlVP-gDfmkozFk_soZNIjoH6vRdJZH__4x-sxSTxllQgweTTi4zBy76AkOHm85ONHDe3Is8WsUrCjE0RH0nr0Twj_MfFC3Iv3FsQDOJrpNxilgpxdgAlYi_7g7ZMnRuoitt_z-lIlMzdIPXlzC_VSF_lhDg240q5kikBw_Vv-hNZ2IhPcSdSHI9YGcamBAg62DsT0NPdwywQvKc2Qu5l5l1ETdy1PLlWV8N0wenp_gyh_0000?></g></svg>