<svg xmlns="http://www.w3.org/2000/svg" xmlns:xlink="http://www.w3.org/1999/xlink" version="1.1" data-diagram-type="DESCRIPTION" style="width:552px;height:510px;" width="552px" height="510px" viewBox="0 0 552 510" zoomAndPan="magnify" preserveAspectRatio="none" contentStyleType="text/css"><?plantuml 1.2026.8?><defs/><g font-family="sans-serif" lengthAdjust="spacing"><!--entity LB--><g class="entity" data-qualified-name="LB" id="ent0001" data-source-line="22"><rect x="187" y="12" width="134.657" height="46.939" fill="#667EEA" fill-opacity="0.125" style="stroke:#667EEA;stroke-width:2;" rx="7.5" ry="7.5"/><rect x="301.657" y="17" width="15" height="10" fill="#667EEA" fill-opacity="0.125" style="stroke:#667EEA;stroke-width:2;"/><rect x="299.657" y="19" width="4" height="2" fill="#667EEA" fill-opacity="0.125" style="stroke:#667EEA;stroke-width:2;"/><rect x="299.657" y="23" width="4" height="2" fill="#667EEA" fill-opacity="0.125" style="stroke:#667EEA;stroke-width:2;"/><text x="202" y="45.563" fill="#1A1F24" font-size="14" textLength="94.657">Load Balancer</text></g><!--entity S1--><g class="entity" data-qualified-name="S1" id="ent0002" data-source-line="23"><rect x="119" y="119" width="116.727" height="46.939" fill="#667EEA" fill-opacity="0.125" style="stroke:#667EEA;stroke-width:2;" rx="7.5" ry="7.5"/><rect x="215.727" y="124" width="15" height="10" fill="#667EEA" fill-opacity="0.125" style="stroke:#667EEA;stroke-width:2;"/><rect x="213.727" y="126" width="4" height="2" fill="#667EEA" fill-opacity="0.125" style="stroke:#667EEA;stroke-width:2;"/><rect x="213.727" y="130" width="4" height="2" fill="#667EEA" fill-opacity="0.125" style="stroke:#667EEA;stroke-width:2;"/><text x="134" y="152.563" fill="#1A1F24" font-size="14" textLength="76.727">Scheduler 1</text></g><!--entity S2--><g class="entity" data-qualified-name="S2" id="ent0003" data-source-line="24"><rect x="271.5" y="119" width="119.57" height="46.939" fill="#667EEA" fill-opacity="0.125" style="stroke:#667EEA;stroke-width:2;" rx="7.5" ry="7.5"/><rect x="371.07" y="124" width="15" height="10" fill="#667EEA" fill-opacity="0.125" style="stroke:#667EEA;stroke-width:2;"/><rect x="369.07" y="126" width="4" height="2" fill="#667EEA" fill-opacity="0.125" style="stroke:#667EEA;stroke-width:2;"/><rect x="369.07" y="130" width="4" height="2" fill="#667EEA" fill-opacity="0.125" style="stroke:#667EEA;stroke-width:2;"/><text x="286.5" y="152.563" fill="#1A1F24" font-size="14" textLength="79.57">Scheduler 2</text></g><!--entity MQ--><g class="entity" data-qualified-name="MQ" id="ent0004" data-source-line="25"><rect x="180.5" y="226" width="147.721" height="46.939" fill="#667EEA" fill-opacity="0.125" style="stroke:#667EEA;stroke-width:2;" rx="7.5" ry="7.5"/><rect x="308.221" y="231" width="15" height="10" fill="#667EEA" fill-opacity="0.125" style="stroke:#667EEA;stroke-width:2;"/><rect x="306.221" y="233" width="4" height="2" fill="#667EEA" fill-opacity="0.125" style="stroke:#667EEA;stroke-width:2;"/><rect x="306.221" y="237" width="4" height="2" fill="#667EEA" fill-opacity="0.125" style="stroke:#667EEA;stroke-width:2;"/><text x="195.5" y="259.563" fill="#1A1F24" font-size="14" textLength="107.721">Message Queue</text></g><!--entity W1--><g class="entity" data-qualified-name="W1" id="ent0005" data-source-line="26"><rect x="105" y="333" width="131.267" height="46.939" fill="#667EEA" fill-opacity="0.125" style="stroke:#667EEA;stroke-width:2;" rx="7.5" ry="7.5"/><rect x="216.267" y="338" width="15" height="10" fill="#667EEA" fill-opacity="0.125" style="stroke:#667EEA;stroke-width:2;"/><rect x="214.267" y="340" width="4" height="2" fill="#667EEA" fill-opacity="0.125" style="stroke:#667EEA;stroke-width:2;"/><rect x="214.267" y="344" width="4" height="2" fill="#667EEA" fill-opacity="0.125" style="stroke:#667EEA;stroke-width:2;"/><text x="120" y="366.563" fill="#1A1F24" font-size="14" textLength="91.267">Worker Pool 1</text></g><!--entity W2--><g class="entity" data-qualified-name="W2" id="ent0006" data-source-line="27"><rect x="271.5" y="333" width="134.11" height="46.939" fill="#667EEA" fill-opacity="0.125" style="stroke:#667EEA;stroke-width:2;" rx="7.5" ry="7.5"/><rect x="385.61" y="338" width="15" height="10" fill="#667EEA" fill-opacity="0.125" style="stroke:#667EEA;stroke-width:2;"/><rect x="383.61" y="340" width="4" height="2" fill="#667EEA" fill-opacity="0.125" style="stroke:#667EEA;stroke-width:2;"/><rect x="383.61" y="344" width="4" height="2" fill="#667EEA" fill-opacity="0.125" style="stroke:#667EEA;stroke-width:2;"/><text x="286.5" y="366.563" fill="#1A1F24" font-size="14" textLength="94.11">Worker Pool 2</text></g><!--entity DB--><g class="entity" data-qualified-name="DB" id="ent0007" data-source-line="28"><path d="M213.5,450 C213.5,440 254.696,440 254.696,440 C254.696,440 295.892,440 295.892,450 L295.892,475.939 C295.892,485.939 254.696,485.939 254.696,485.939 C254.696,485.939 213.5,485.939 213.5,475.939 L213.5,450" style="stroke:#10B981;stroke-width:2;" fill="#10B981" fill-opacity="0.125"/><path d="M213.5,450 C213.5,460 254.696,460 254.696,460 C254.696,460 295.892,460 295.892,450" style="stroke:#10B981;stroke-width:2;" fill="none"/><text x="223.5" y="477.563" fill="#1A1F24" font-size="14" textLength="62.392">Database</text></g><g class="entity" data-qualified-name="GMN16" id="ent0017" data-source-line="40"><path d="M357.5,22.5 L357.5,32 L322,36 L357.5,40 L357.5,48.959 A7.5,7.5 0 0 0 365,56.459 L530.123,56.459 A7.5,7.5 0 0 0 537.623,48.959 L537.623,25 L527.623,15 L365,15 A7.5,7.5 0 0 0 357.5,22.5" style="stroke:#000;stroke-width:1;" fill="#FFF"/><path d="M527.623,15 L527.623,21.25 A3.75,3.75 0 0 0 531.373,25 L537.623,25 L527.623,15" style="stroke:#000;stroke-width:1;" fill="#FFF"/><text x="363.5" y="32.594" fill="#1A1F24" font-size="13" textLength="114.213">Enhanced visibility</text><text x="363.5" y="48.323" fill="#1A1F24" font-size="13" textLength="159.123">Transparent backgrounds</text></g><g class="entity" data-qualified-name="GMN19" id="ent0020" data-source-line="41"><path d="M11,450 L11,476.459 A7.5,7.5 0 0 0 18.5,483.959 L170.02,483.959 A7.5,7.5 0 0 0 177.52,476.459 L177.52,467 L213.49,463 L177.52,459 L177.52,452.5 L167.52,442.5 L18.5,442.5 A7.5,7.5 0 0 0 11,450" style="stroke:#000;stroke-width:1;" fill="#FFF"/><path d="M167.52,442.5 L167.52,448.75 A3.75,3.75 0 0 0 171.27,452.5 L177.52,452.5 L167.52,442.5" style="stroke:#000;stroke-width:1;" fill="#FFF"/><text x="17" y="460.094" fill="#1A1F24" font-size="13" textLength="145.52">Optimized performance</text><text x="17" y="475.823" fill="#1A1F24" font-size="13" textLength="129.987">Scalable architecture</text></g><!--link LB to S1--><g class="link" data-entity-1="ent0001" data-entity-2="ent0002" id="lnk8" data-source-line="31" data-link-type="dependency"><path d="M211.5,59.25 C211.5,76.98 211.5,96.1 211.5,113.82" style="stroke:#000;stroke-width:1;" fill="none" id="LB-to-S1"/><polygon points="211.5,118.82,215.5,109.82,211.5,113.82,207.5,109.82,211.5,118.82" fill="#000" style="stroke:#000;stroke-width:1;stroke-linejoin:miter;stroke-miterlimit:10;"/></g><!--link LB to S2--><g class="link" data-entity-1="ent0001" data-entity-2="ent0003" id="lnk9" data-source-line="32" data-link-type="dependency"><path d="M296.75,59.25 C296.75,76.98 296.75,96.1 296.75,113.82" style="stroke:#000;stroke-width:1;" fill="none" id="LB-to-S2"/><polygon points="296.75,118.82,300.75,109.82,296.75,113.82,292.75,109.82,296.75,118.82" fill="#000" style="stroke:#000;stroke-width:1;stroke-linejoin:miter;stroke-miterlimit:10;"/></g><!--link S1 to MQ--><g class="link" data-entity-1="ent0002" data-entity-2="ent0004" id="lnk10" data-source-line="33" data-link-type="dependency"><path d="M208.25,166.25 C208.25,183.98 208.25,203.1 208.25,220.82" style="stroke:#000;stroke-width:1;" fill="none" id="S1-to-MQ"/><polygon points="208.25,225.82,212.25,216.82,208.25,220.82,204.25,216.82,208.25,225.82" fill="#000" style="stroke:#000;stroke-width:1;stroke-linejoin:miter;stroke-miterlimit:10;"/></g><!--link S2 to MQ--><g class="link" data-entity-1="ent0003" data-entity-2="ent0004" id="lnk11" data-source-line="34" data-link-type="dependency"><path d="M300,166.25 C300,183.98 300,203.1 300,220.82" style="stroke:#000;stroke-width:1;" fill="none" id="S2-to-MQ"/><polygon points="300,225.82,304,216.82,300,220.82,296,216.82,300,225.82" fill="#000" style="stroke:#000;stroke-width:1;stroke-linejoin:miter;stroke-miterlimit:10;"/></g><!--link MQ to W1--><g class="link" data-entity-1="ent0004" data-entity-2="ent0005" id="lnk12" data-source-line="35" data-link-type="dependency"><path d="M208.25,273.25 C208.25,290.98 208.25,310.1 208.25,327.82" style="stroke:#000;stroke-width:1;" fill="none" id="MQ-to-W1"/><polygon points="208.25,332.82,212.25,323.82,208.25,327.82,204.25,323.82,208.25,332.82" fill="#000" style="stroke:#000;stroke-width:1;stroke-linejoin:miter;stroke-miterlimit:10;"/></g><!--link MQ to W2--><g class="link" data-entity-1="ent0004" data-entity-2="ent0006" id="lnk13" data-source-line="36" data-link-type="dependency"><path d="M300,273.25 C300,290.98 300,310.1 300,327.82" style="stroke:#000;stroke-width:1;" fill="none" id="MQ-to-W2"/><polygon points="300,332.82,304,323.82,300,327.82,296,323.82,300,332.82" fill="#000" style="stroke:#000;stroke-width:1;stroke-linejoin:miter;stroke-miterlimit:10;"/></g><!--link W1 to DB--><g class="link" data-entity-1="ent0005" data-entity-2="ent0007" id="lnk14" data-source-line="37" data-link-type="dependency"><path d="M224.75,380.14 C224.75,397.91 224.75,417.13 224.75,434.8" style="stroke:#000;stroke-width:1;" fill="none" id="W1-to-DB"/><polygon points="224.75,439.8,228.75,430.8,224.75,434.8,220.75,430.8,224.75,439.8" fill="#000" style="stroke:#000;stroke-width:1;stroke-linejoin:miter;stroke-miterlimit:10;"/></g><!--link W2 to DB--><g class="link" data-entity-1="ent0006" data-entity-2="ent0007" id="lnk15" data-source-line="38" data-link-type="dependency"><path d="M283.5,380.14 C283.5,397.91 283.5,417.13 283.5,434.8" style="stroke:#000;stroke-width:1;" fill="none" id="W2-to-DB"/><polygon points="283.5,439.8,287.5,430.8,283.5,434.8,279.5,430.8,283.5,439.8" fill="#000" style="stroke:#000;stroke-width:1;stroke-linejoin:miter;stroke-miterlimit:10;"/></g><?plantuml-src TPDDRzim38Rl-XLSUkYfG2sqtSTXG9EifwHRu0A-z2BRj2r49Wr9Rf4E---JxJhLXiGdmW-_NfBwv1ji4JgZD0dXzfewPLKBhb4blsggeLB6OKGizrGMR0aj9BTnZD64_j0XiFKD2t49FwXHL609pXy2hIFdWjkE2Sd3Rm7XMwfYNu-vLspOmiNTtMT49QydohP4-m-9_ZyrkjWJEWTI_8axAfLNkN9uhaPodN_zafogCP7pDIuXFJYFBTpRej4U2zzRXDKioeaFVOiDgpBKDiCex0AKWyqovcdHODcROPuZJHCuZUM4PKoteILL8-nwx77asrtCCxRx4FgBsRodpv9pVCgVIN6SssBzReralHo4hvWewDLC3bwrRy1RHIuCVCWtBtgpXAkhxq7AqP8Yw1giq5ygPskx6wtGqsn9aKr-eLecPqiGUmIhwyO3Ls60yEtZkbwqqxassX-UwIbg9Z_ksqtn1ginV3s4_-oyRlLRYE_GLcpR8TapfKNOL6uGLBJPwARo_uueKXzV7bQgD_w1oJ-gyC3Iu9IYrTLfd_dgxfC7UVCN?></g></svg>