<svg xmlns="http://www.w3.org/2000/svg" xmlns:xlink="http://www.w3.org/1999/xlink" version="1.1" data-diagram-type="STATE" style="width:768px;height:805px;" width="768px" height="805px" viewBox="0 0 768 805" zoomAndPan="magnify" preserveAspectRatio="none" contentStyleType="text/css"><?plantuml 1.2026.8?><defs/><g font-family="sans-serif" lengthAdjust="spacing"><g class="entity" data-qualified-name="CLOSED" id="ent0001" data-source-line="10"><rect x="305.2" y="107" width="172.031" height="104.697" fill="#E8F4FD" style="stroke:#000;stroke-width:1;" rx="12.5" ry="12.5"/><line x1="305.2" y1="133.939" x2="477.231" y2="133.939" style="stroke:#000;stroke-width:1;"/><text x="363.041" y="125.563" fill="#1A1F24" font-size="14" textLength="56.349" font-family="'Schibsted Grotesk'">CLOSED</text><text x="310.2" y="152.502" fill="#1A1F24" font-size="14" textLength="116.874" font-family="'Schibsted Grotesk'">Normal Operation</text><text x="310.2" y="169.441" fill="#1A1F24" font-size="14" textLength="152.031" font-family="'Schibsted Grotesk'">All requests processed</text><text x="310.2" y="186.381" fill="#1A1F24" font-size="14" textLength="140.144" font-family="'Schibsted Grotesk'">Failure count tracked</text><text x="310.2" y="203.32" fill="#1A1F24" font-size="14" textLength="123.895" font-family="'Schibsted Grotesk'">Latency monitored</text></g><g class="entity" data-qualified-name="OPEN" id="ent0002" data-source-line="17"><rect x="164.7" y="405" width="174.615" height="104.697" fill="#E8F4FD" style="stroke:#000;stroke-width:1;" rx="12.5" ry="12.5"/><line x1="164.7" y1="431.939" x2="339.315" y2="431.939" style="stroke:#000;stroke-width:1;"/><text x="232.703" y="423.563" fill="#1A1F24" font-size="14" textLength="38.609" font-family="'Schibsted Grotesk'">OPEN</text><text x="169.7" y="450.502" fill="#1A1F24" font-size="14" textLength="137.197" font-family="'Schibsted Grotesk'">Blocking all requests</text><text x="169.7" y="467.441" fill="#1A1F24" font-size="14" textLength="116.095" font-family="'Schibsted Grotesk'">Fail-fast behavior</text><text x="169.7" y="484.381" fill="#1A1F24" font-size="14" textLength="154.615" font-family="'Schibsted Grotesk'">Recovery timer running</text><text x="169.7" y="501.32" fill="#1A1F24" font-size="14" textLength="153.973" font-family="'Schibsted Grotesk'">Health checks disabled</text></g><g class="entity" data-qualified-name="HALF_OPEN" id="ent0003" data-source-line="24"><rect x="231.7" y="687" width="185.184" height="104.697" fill="#E8F4FD" style="stroke:#000;stroke-width:1;" rx="12.5" ry="12.5"/><line x1="231.7" y1="713.939" x2="416.884" y2="713.939" style="stroke:#000;stroke-width:1;"/><text x="283.673" y="705.563" fill="#1A1F24" font-size="14" textLength="81.238" font-family="'Schibsted Grotesk'">HALF_OPEN</text><text x="236.7" y="732.502" fill="#1A1F24" font-size="14" textLength="165.184" font-family="'Schibsted Grotesk'">Limited requests allowed</text><text x="236.7" y="749.441" fill="#1A1F24" font-size="14" textLength="163.939" font-family="'Schibsted Grotesk'">Testing system recovery</text><text x="236.7" y="766.381" fill="#1A1F24" font-size="14" textLength="159.551" font-family="'Schibsted Grotesk'">Monitoring success rate</text><text x="236.7" y="783.32" fill="#1A1F24" font-size="14" textLength="123.724" font-family="'Schibsted Grotesk'">Ready to transition</text></g><g class="start_entity" data-qualified-name=".start." id="ent0004" data-source-line="8"><ellipse cx="391.2" cy="21" rx="10" ry="10" fill="#FFF" style="stroke:#000;stroke-width:1;"/></g><!--link *start* to CLOSED--><g class="link" data-entity-1="ent0004" data-entity-2="ent0001" id="lnk5" data-source-line="8" data-link-type="dependency"><path d="M391.2,31.38 C391.2,46.86 391.2,73.83 391.2,101.83" style="stroke:#4A535C;stroke-width:1;" fill="none" id="*start*-to-CLOSED"/><polygon points="391.2,106.83,395.2,97.83,391.2,101.83,387.2,97.83,391.2,106.83" fill="#4A535C" style="stroke:#4A535C;stroke-width:1;stroke-linejoin:miter;stroke-miterlimit:10;"/><text x="392.2" y="73.625" fill="#4A535C" font-size="12" textLength="72.393" font-family="'Schibsted Grotesk'">System Start</text></g><!--link CLOSED to OPEN--><g class="link" data-entity-1="ent0001" data-entity-2="ent0002" id="lnk6" data-source-line="31" data-link-type="dependency"><path d="M343.15,212.32 C335.83,221.77 328.84,231.85 323.2,242 C294.23,294.11 275.834,355.107 264.694,400.007" style="stroke:#4A535C;stroke-width:1;" fill="none" id="CLOSED-to-OPEN"/><polygon points="263.49,404.86,269.54,397.088,264.694,400.007,261.775,395.162,263.49,404.86" fill="#4A535C" style="stroke:#4A535C;stroke-width:1;stroke-linejoin:miter;stroke-miterlimit:10;"/><text x="339.591" y="254.625" fill="#4A535C" font-size="12" textLength="149.279" font-family="'Schibsted Grotesk'">failure_count >= threshold</text><text x="360.409" y="269.145" fill="#4A535C" font-size="12" textLength="107.643" font-family="'Schibsted Grotesk'">(default: 5 failures)</text><path d="M328.2,278.039 L328.2,366.039 L500.2,366.039 L500.2,288.039 L490.2,278.039 L328.2,278.039" style="stroke:#000;stroke-width:1;" fill="#FFF"/><path d="M490.2,278.039 L490.2,288.039 L500.2,288.039 L490.2,278.039" style="stroke:#000;stroke-width:1;" fill="#FFF"/><text x="334.2" y="295.633" fill="#1A1F24" font-size="13" textLength="55.459" font-family="'Schibsted Grotesk'">Triggers:</text><text x="334.2" y="311.362" fill="#1A1F24" font-size="13" textLength="87.02" font-family="'Schibsted Grotesk'">- API timeouts</text><text x="334.2" y="327.092" fill="#1A1F24" font-size="13" textLength="129.257" font-family="'Schibsted Grotesk'">- Connection failures</text><text x="334.2" y="342.821" fill="#1A1F24" font-size="13" textLength="110.83" font-family="'Schibsted Grotesk'">- ML model errors</text><text x="334.2" y="358.551" fill="#1A1F24" font-size="13" textLength="151.062" font-family="'Schibsted Grotesk'">- Database unavailability</text></g><!--link OPEN to HALF_OPEN--><g class="link" data-entity-1="ent0002" data-entity-2="ent0003" id="lnk7" data-source-line="40" data-link-type="dependency"><path d="M164.68,470.56 C119.76,481.68 68.81,503.03 41.2,544 C13.14,585.65 11,616.87 41.2,657 C64.34,687.74 153.163,709.592 226.503,723.142" style="stroke:#4A535C;stroke-width:1;" fill="none" id="OPEN-to-HALF_OPEN"/><polygon points="231.42,724.05,223.297,718.481,226.503,723.142,221.843,726.348,231.42,724.05" fill="#4A535C" style="stroke:#4A535C;stroke-width:1;stroke-linejoin:miter;stroke-miterlimit:10;"/><text x="89.256" y="556.625" fill="#4A535C" font-size="12" textLength="144.633" font-family="'Schibsted Grotesk'">recovery_timeout expired</text><text x="100.799" y="571.145" fill="#4A535C" font-size="12" textLength="121.547" font-family="'Schibsted Grotesk'">(default: 30 seconds)</text><path d="M46.2,580.039 L46.2,652.039 L276.2,652.039 L276.2,590.039 L266.2,580.039 L46.2,580.039" style="stroke:#000;stroke-width:1;" fill="#FFF"/><path d="M266.2,580.039 L266.2,590.039 L276.2,590.039 L266.2,580.039" style="stroke:#000;stroke-width:1;" fill="#FFF"/><text x="52.2" y="597.633" fill="#1A1F24" font-size="13" textLength="69.564" font-family="'Schibsted Grotesk'">Conditions:</text><text x="52.2" y="613.362" fill="#1A1F24" font-size="13" textLength="209.746" font-family="'Schibsted Grotesk'">- System shows signs of recovery</text><text x="52.2" y="629.092" fill="#1A1F24" font-size="13" textLength="136.405" font-family="'Schibsted Grotesk'">- Error rate decreased</text><text x="52.2" y="644.821" fill="#1A1F24" font-size="13" textLength="197.634" font-family="'Schibsted Grotesk'">- Resource availability improved</text></g><!--link HALF_OPEN to OPEN--><g class="link" data-entity-1="ent0003" data-entity-2="ent0002" id="lnk9" data-source-line="56" data-link-type="dependency"><path d="M316.3,686.73 C309.66,647.21 299.06,591.62 285.2,544 C281.96,532.85 279.64,525.78 275.47,514.69" style="stroke:#4A535C;stroke-width:1;" fill="none" id="HALF_OPEN-to-OPEN"/><polygon points="273.71,510.01,273.134,519.842,275.47,514.69,280.622,517.026,273.71,510.01" fill="#4A535C" style="stroke:#4A535C;stroke-width:1;stroke-linejoin:miter;stroke-miterlimit:10;"/><text x="346.602" y="563.625" fill="#4A535C" font-size="12" textLength="113.314" font-family="'Schibsted Grotesk'">any failure detected</text><path d="M316.2,572.52 L316.2,644.52 L490.2,644.52 L490.2,582.52 L480.2,572.52 L316.2,572.52" style="stroke:#000;stroke-width:1;" fill="#FFF"/><path d="M480.2,572.52 L480.2,582.52 L490.2,582.52 L480.2,572.52" style="stroke:#000;stroke-width:1;" fill="#FFF"/><text x="322.2" y="590.113" fill="#1A1F24" font-size="13" textLength="119.063" font-family="'Schibsted Grotesk'">Immediate triggers:</text><text x="322.2" y="605.843" fill="#1A1F24" font-size="13" textLength="151.792" font-family="'Schibsted Grotesk'">- Single operation failure</text><text x="322.2" y="621.572" fill="#1A1F24" font-size="13" textLength="153.118" font-family="'Schibsted Grotesk'">- Latency spike detected</text><text x="322.2" y="637.302" fill="#1A1F24" font-size="13" textLength="138.569" font-family="'Schibsted Grotesk'">- Resource exhaustion</text></g><!--link HALF_OPEN to CLOSED--><g class="link" data-entity-1="ent0003" data-entity-2="ent0001" id="lnk8" data-source-line="48" data-link-type="dependency"><path d="M416.99,718.14 C449.83,706.04 483.49,686.95 503.2,657 C563.69,565.13 540.63,301.9 509.2,242 C501.63,227.56 494.076,218.329 481.266,207.889" style="stroke:#4A535C;stroke-width:1;" fill="none" id="HALF_OPEN-to-CLOSED"/><polygon points="477.39,204.73,481.84,213.516,481.266,207.889,486.894,207.315,477.39,204.73" fill="#4A535C" style="stroke:#4A535C;stroke-width:1;stroke-linejoin:miter;stroke-miterlimit:10;"/><text x="569.766" y="413.625" fill="#4A535C" font-size="12" textLength="160.482" font-family="'Schibsted Grotesk'">success_count >= threshold</text><text x="587.028" y="428.145" fill="#4A535C" font-size="12" textLength="125.959" font-family="'Schibsted Grotesk'">(default: 3 successes)</text><path d="M546.2,437.039 L546.2,509.039 L753.2,509.039 L753.2,447.039 L743.2,437.039 L546.2,437.039" style="stroke:#000;stroke-width:1;" fill="#FFF"/><path d="M743.2,437.039 L743.2,447.039 L753.2,447.039 L743.2,437.039" style="stroke:#000;stroke-width:1;" fill="#FFF"/><text x="552.2" y="454.633" fill="#1A1F24" font-size="13" textLength="140.499" font-family="'Schibsted Grotesk'">Successful operations:</text><text x="552.2" y="470.362" fill="#1A1F24" font-size="13" textLength="178.452" font-family="'Schibsted Grotesk'">- Data processing completed</text><text x="552.2" y="486.092" fill="#1A1F24" font-size="13" textLength="158.615" font-family="'Schibsted Grotesk'">- ML predictions accurate</text><text x="552.2" y="501.821" fill="#1A1F24" font-size="13" textLength="186.615" font-family="'Schibsted Grotesk'">- Alerts delivered successfully</text></g><!--link OPEN to OPEN--><g class="link" data-entity-1="ent0002" data-entity-2="ent0002" id="lnk10" data-source-line="64" data-link-type="dependency"><path d="M339.74,431.46 C359.9,433.71 374.7,442.38 374.7,457.5 C374.7,472.62 364.869,480.735 344.709,482.985" style="stroke:#4A535C;stroke-width:1;" fill="none" id="OPEN-to-OPEN"/><polygon points="339.74,483.54,349.128,486.517,344.709,482.985,348.241,478.566,339.74,483.54" fill="#4A535C" style="stroke:#4A535C;stroke-width:1;stroke-linejoin:miter;stroke-miterlimit:10;"/><text x="380.7" y="454.625" fill="#4A535C" font-size="12" textLength="91.822" font-family="'Schibsted Grotesk'">request blocked</text><text x="400.259" y="469.145" fill="#4A535C" font-size="12" textLength="52.705" font-family="'Schibsted Grotesk'">(fail-fast)</text></g><!--link CLOSED to CLOSED--><g class="link" data-entity-1="ent0001" data-entity-2="ent0001" id="lnk11" data-source-line="65" data-link-type="dependency"><path d="M477.4,142.98 C497.44,144.37 512.2,149.88 512.2,159.5 C512.2,169.12 502.428,174.284 482.388,175.674" style="stroke:#4A535C;stroke-width:1;" fill="none" id="CLOSED-to-CLOSED"/><polygon points="477.4,176.02,486.655,179.388,482.388,175.674,486.102,171.407,477.4,176.02" fill="#4A535C" style="stroke:#4A535C;stroke-width:1;stroke-linejoin:miter;stroke-miterlimit:10;"/><text x="518.2" y="156.625" fill="#4A535C" font-size="12" textLength="118.535" font-family="'Schibsted Grotesk'">successful operation</text><text x="521.449" y="171.145" fill="#4A535C" font-size="12" textLength="112.037" font-family="'Schibsted Grotesk'">(reset failure count)</text></g><?plantuml-src XLNRRXen47tVhvYcBqqbf91BrI0r4Y5i4ubS5FBMLf7n3go5rzxQNX9QzTyxQxoBsL2L9-0SpyoPCsE_SpaM2ALaGYLsALJ932l0EkOmrSfDnI-4_caN6XgZNxRuSHU_P7ovCBfIsKXBRU3z-7DwcbvrQLF7Z0kCywFn-FoeonYt4TBqyjEedoJVFlw0Nky2HfFxwVWA1Z1TMuS5-5X9uayruEy4wDCoxxGfc8Jx4WrpGgjTT2Wb6FnPeNKMIgCvMelPBYTbGbO6WPCq1ywGp2vbGlaLNqEXbN3Q4FodgUh-ONmNQl9V1t0fDIV12s1HyfXG9-pDcNKmmvojX3On-eXShz2imOa23PXAAGeMCwwHIPS3pv4lBMJ2ifcCIxeUJjBdgAxjRr8Y2k4mspQ5YjGlGMzCV2Aq5c4tJfXGrHlUxQObdbhnkhz0Hk0RtYEoZ3Jfki7A2cyLLHnQN9iVYFED7SyREow-WCiDsbpBxBlwaE6SLT8DuApXsSD4QHAj5KYXbZxlan6B1HexyBzwC7ouyTtKLJ2Y1oEj5FAwYZPGG6udP7E64f3smJJ_NZ77PimYL8gjw02R2IdSEa6LGPq_INpvjOvOTTEsvv0UyBKKD3-nb9CZi4HJsJufL6VcczMA2Qj17NcnOCL2MT3pNNzwCAvhzqP0XjmWQwQ-HqPONHcE4Ei0KT1sh8Yq5RJLiREQmUN_-7FIyFOQDDrWyqg2RXQt5LYtkjdLUgouBag9hXL01fNKGk7Tem7cl6edZhoMQ6YioK11_Q19jsqkkVwdkc0NK-jc72Y2em6Xh6-gloaAIb_trdK6RKhrIjngQe85kBb6R2cMKOAEB_YQiyhw1TapNUrW-Vs5MNtP-7cQDxVAORnKNTjsMawdo3fqhMRlwM4INTYppgNljvSWL2vY1Tlhn-EEqTDpCEMvcDdwelbgg7wxFDZF3kz0VzXFZ-C7oRz50JmTdfsSZRfWT7f3-0i0?></g></svg>