<svg xmlns="http://www.w3.org/2000/svg" xmlns:xlink="http://www.w3.org/1999/xlink" version="1.1" data-diagram-type="DESCRIPTION" style="width:644px;height:596px;" width="644px" height="596px" viewBox="0 0 644 596" zoomAndPan="magnify" preserveAspectRatio="none" contentStyleType="text/css"><?plantuml 1.2026.8?><defs/><g font-family="sans-serif" lengthAdjust="spacing"><!--cluster After: internet--><g class="cluster" data-qualified-name="After. internet" id="ent0001" data-source-line="15"><path d="M207,11 L302.043,11 A6,6 0 0 1 306.043,15 L313.043,33.939 L393,33.939 A4,4 0 0 1 397,37.939 L397,577 A4,4 0 0 1 393,581 L207,581 A4,4 0 0 1 203,577 L203,15 A4,4 0 0 1 207,11" style="stroke:#00636C;stroke-width:1;" fill="#EAF4F2"/><line x1="203" y1="33.939" x2="313.043" y2="33.939" style="stroke:#00636C;stroke-width:1;"/><text x="207" y="26.563" fill="#1A1F24" font-size="14" textLength="97.043" font-weight="700">After: internet</text></g><!--cluster Before: intranet--><g class="cluster" data-qualified-name="Before. intranet" id="ent0009" data-source-line="25"><path d="M15,11 L120.44,11 A6,6 0 0 1 124.44,15 L131.44,33.939 L175,33.939 A4,4 0 0 1 179,37.939 L179,286 A4,4 0 0 1 175,290 L15,290 A4,4 0 0 1 11,286 L11,15 A4,4 0 0 1 15,11" style="stroke:#00636C;stroke-width:1;" fill="#EAF4F2"/><line x1="11" y1="33.939" x2="131.44" y2="33.939" style="stroke:#00636C;stroke-width:1;"/><text x="15" y="26.563" fill="#1A1F24" font-size="14" textLength="107.44" font-weight="700">Before: intranet</text></g><!--entity U--><g class="entity" data-qualified-name="After. internet.U" id="ent0002" data-source-line="16"><rect x="219" y="46" width="109.886" height="53.879" fill="#F3F0E5" style="stroke:#031211;stroke-width:1;" rx="4" ry="4"/><text x="248.629" y="69.563" fill="#1A1F24" font-size="14" textLength="50.627">Anyone</text><text x="229" y="86.502" fill="#1A1F24" font-size="14" textLength="89.886">198.51.100.23</text></g><!--entity E--><g class="entity" data-qualified-name="After. internet.E" id="ent0003" data-source-line="17"><rect x="228" y="198" width="123.906" height="70.818" fill="#F3F0E5" style="stroke:#031211;stroke-width:1;" rx="4" ry="4"/><text x="273.085" y="221.563" fill="#1A1F24" font-size="14" textLength="33.735">Edge</text><text x="256.167" y="238.502" fill="#1A1F24" font-size="14" textLength="67.573">DNS, TLS,</text><text x="238" y="255.441" fill="#1A1F24" font-size="14" textLength="103.906">rate limits, WAF</text></g><!--entity P--><g class="entity" data-qualified-name="After. internet.P" id="ent0004" data-source-line="18"><rect x="219.5" y="337" width="161.415" height="53.879" fill="#F3F0E5" style="stroke:#031211;stroke-width:1;" rx="4" ry="4"/><text x="229.5" y="360.563" fill="#1A1F24" font-size="14" textLength="141.415">Reverse proxy (DMZ)</text><text x="239.986" y="377.502" fill="#1A1F24" font-size="14" textLength="120.442">SSO / OIDC check</text></g><!--entity A2--><g class="entity" data-qualified-name="After. internet.A2" id="ent0005" data-source-line="19"><polygon points="219.5,494,229.5,484,364.534,484,364.534,554.818,354.534,564.818,219.5,564.818,219.5,494" fill="#F3F0E5" style="stroke:#031211;stroke-width:1;stroke-linejoin:miter;stroke-miterlimit:10;"/><line x1="354.534" y1="494" x2="364.534" y2="484" style="stroke:#031211;stroke-width:1;"/><line x1="219.5" y1="494" x2="354.534" y2="494" style="stroke:#031211;stroke-width:1;"/><line x1="354.534" y1="494" x2="354.534" y2="564.818" style="stroke:#031211;stroke-width:1;"/><text x="273.615" y="517.563" fill="#1A1F24" font-size="14" textLength="26.804">App</text><text x="242.676" y="534.502" fill="#1A1F24" font-size="14" textLength="88.683">10.0.1.5:8080</text><text x="234.5" y="551.441" fill="#1A1F24" font-size="14" textLength="74.279">unchanged</text><text x="308.779" y="551.441" fill="#1A1F24" font-size="14"> </text><text x="312.717" y="551.441" fill="#1A1F24" font-size="14" textLength="26.817">port</text></g><!--entity L1--><g class="entity" data-qualified-name="Before. intranet.L1" id="ent0010" data-source-line="26"><rect x="29.5" y="46" width="130.537" height="53.879" fill="#F3F0E5" style="stroke:#031211;stroke-width:1;" rx="4" ry="4"/><text x="39.5" y="69.563" fill="#1A1F24" font-size="14" textLength="110.537">Employee laptop</text><text x="54.228" y="86.502" fill="#1A1F24" font-size="14" textLength="81.081">10.20.0.0/16</text></g><!--entity A1--><g class="entity" data-qualified-name="Before. intranet.A1" id="ent0011" data-source-line="27"><polygon points="27.5,203,37.5,193,156.183,193,156.183,263.818,146.183,273.818,27.5,273.818,27.5,203" fill="#F3F0E5" style="stroke:#031211;stroke-width:1;stroke-linejoin:miter;stroke-miterlimit:10;"/><line x1="146.183" y1="203" x2="156.183" y2="193" style="stroke:#031211;stroke-width:1;"/><line x1="27.5" y1="203" x2="146.183" y2="203" style="stroke:#031211;stroke-width:1;"/><line x1="146.183" y1="203" x2="146.183" y2="273.818" style="stroke:#031211;stroke-width:1;"/><text x="73.439" y="226.563" fill="#1A1F24" font-size="14" textLength="26.804">App</text><text x="42.5" y="243.502" fill="#1A1F24" font-size="14" textLength="88.683">10.0.1.5:8080</text><text x="50.419" y="260.441" fill="#1A1F24" font-size="14" textLength="31.486">plain</text><text x="81.906" y="260.441" fill="#1A1F24" font-size="14"> </text><text x="85.843" y="260.441" fill="#1A1F24" font-size="14" textLength="37.42">HTTP</text></g><g class="entity" data-qualified-name="GMN14" id="ent0015" data-source-line="31"><path d="M413,508 L413,541.459 A4,4 0 0 0 417,545.459 L625.032,545.459 A4,4 0 0 0 629.032,541.459 L629.032,514 L619.032,504 L417,504 A4,4 0 0 0 413,508" style="stroke:#00636C;stroke-width:1;" fill="#D5ECEA"/><path d="M619.032,504 L619.032,512 A2,2 0 0 0 621.032,514 L629.032,514 L619.032,504" style="stroke:#00636C;stroke-width:1;" fill="#D5ECEA"/><text x="462.678" y="521.594" fill="#1A1F24" font-size="13" textLength="107.675">trust moves here:</text><text x="419" y="537.323" fill="#1A1F24" font-size="13" textLength="195.032">who you are, not where you are</text></g><!--link U to E--><g class="link" data-entity-1="ent0002" data-entity-2="ent0003" id="lnk6" data-source-line="20" data-link-type="dependency"><path d="M276.64,100.17 C279.34,126.9 283.038,163.565 286.008,192.985" style="stroke:#031211;stroke-width:1;" fill="none" id="U-to-E"/><polygon points="286.51,197.96,289.586,188.604,286.008,192.985,281.626,189.407,286.51,197.96" fill="#031211" style="stroke:#031211;stroke-width:1;stroke-linejoin:miter;stroke-miterlimit:10;"/><text x="284" y="151.594" fill="#000" font-size="13" textLength="104.26" font-family="Verdana, 'DejaVu Sans', 'Segoe UI', sans-serif">203.0.113.10:443</text></g><!--link E to P--><g class="link" data-entity-1="ent0003" data-entity-2="ent0004" id="lnk7" data-source-line="21" data-link-type="dependency"><path d="M292.71,269.27 C294.36,290.53 296.051,312.305 297.571,331.775" style="stroke:#031211;stroke-width:1;" fill="none" id="E-to-P"/><polygon points="297.96,336.76,301.247,327.476,297.571,331.775,293.272,328.099,297.96,336.76" fill="#031211" style="stroke:#031211;stroke-width:1;stroke-linejoin:miter;stroke-miterlimit:10;"/></g><!--link P to A2--><g class="link" data-entity-1="ent0004" data-entity-2="ent0005" id="lnk8" data-source-line="22" data-link-type="dependency"><path d="M298.68,391.17 C297.41,416.41 295.711,449.936 294.251,478.926" style="stroke:#031211;stroke-width:1;" fill="none" id="P-to-A2"/><polygon points="294,483.92,298.448,475.133,294.251,478.926,290.458,474.73,294,483.92" fill="#031211" style="stroke:#031211;stroke-width:1;stroke-linejoin:miter;stroke-miterlimit:10;"/><text x="298" y="434.594" fill="#000" font-size="13" textLength="113.331" font-family="Verdana, 'DejaVu Sans', 'Segoe UI', sans-serif">identity in headers</text><text x="300.723" y="450.323" fill="#000" font-size="13" textLength="107.885" font-family="Verdana, 'DejaVu Sans', 'Segoe UI', sans-serif">X-Forwarded-For</text></g><!--link L1 to A1--><g class="link" data-entity-1="ent0010" data-entity-2="ent0011" id="lnk12" data-source-line="28" data-link-type="dependency"><path d="M94.5,100.17 C94.03,125.41 93.395,158.931 92.845,187.921" style="stroke:#031211;stroke-width:1;" fill="none" id="L1-to-A1"/><polygon points="92.75,192.92,96.92,183.997,92.845,187.921,88.921,183.846,92.75,192.92" fill="#031211" style="stroke:#031211;stroke-width:1;stroke-linejoin:miter;stroke-miterlimit:10;"/><text x="95" y="143.594" fill="#000" font-size="13" textLength="99.538" font-family="Verdana, 'DejaVu Sans', 'Segoe UI', sans-serif">trusted because</text><text x="113.532" y="159.323" fill="#000" font-size="13" textLength="62.474" font-family="Verdana, 'DejaVu Sans', 'Segoe UI', sans-serif">it got here</text></g><!--link L1 to U--><!--link P to GMN14--><g class="link" data-entity-1="ent0004" data-entity-2="ent0015" id="lnk16" data-source-line="31" data-link-type="association"><path d="M366.79,391.06 C384.79,399.42 403.75,409.53 420,421 C454.08,445.06 486.68,481.35 505.22,503.67" style="stroke:#031211;stroke-width:1;stroke-dasharray:7,7;" fill="none" id="P-GMN14"/></g><?plantuml-src XPJHZvf04CRV_IkczgLDr6D1ZVMX2QUGDl4yKpHjMlgmmWWROPSiotccwV_U0MtAUQQ-4CByljblFWRUc1HpX2BZGdRAlP05rpo7CkMnEWYPm8vd9ROgMbKoZfIMg67IUXxZZbUPMUEpSJEHo1obWOWkg5kKgxKwp5IcDBor76OprcwDaU4ooV1UwHZrROn7-wJnSqPznxUyKGkLAhxHh25kzYc8uCb5AsliZ6TNeCjkdkiFVRi5BfLvJSr7tinpBwah1tREvq3NtL6uKn1rnX9D5tvru5ywL9T79J6KxCDaC683Pba3s-a2Bs7p4lJYXB3vCkZ1UX7qGgcvGSX4BapPWw-ktuYybw8l-8IwfDNHwla8x-OFtz-7CWWUuGuUFyzd4AKOxHlXYeHrpkIeACYEDR06R32QJgo95SfAHYcrn1WAfKqZS6rIRA3V_mWUJC6sd5h171fXEXmwLFIQOjrurTovDd4YfdKJvaY9G8gSaYj3-QtlAttWb6DSttL-jmAynvtIs2Ie-RK4lRp8r14f2ruOTV9kr_QjEpPkh2xOVuThlYluj5wlJeFLz8ATB3EoR7HL6XfzYn6lIde9ma2Y3DdNI5Phz4SgOXhifnP9QaYtwKZQ3DWgOrGEQaS9dFj0hfwmRBJJK1vI1KTL0TVO8uS63dNXxwFMecqlLh7EegGIXVdw-_QLD4jEVuo0e02rs5rdpZlBNERRmpy0?></g></svg>