<svg style="font-family:'Aptos Mono','JetBrains Mono',ui-monospace,monospace" class="fig-svg" xmlns="http://www.w3.org/2000/svg" viewBox="0 0 677 474" width="677" height="474" role="img" aria-label="Figure 1: For A = (2, 2, 3), 4 sequences cancel in pairs; the 8 left over give even − odd = 6"><style>/* ```fig diagrams (src/lib/remark-fig.mjs). Palette from the Claude Code docs Subagents / Agent Teams figure. */
.fig-svg {
  --f-panel: #e9ecef; --f-panel-edge: #ffffff; --f-ink: #1e1e1e; --f-body: #495057; --f-life: #ced4da;
  --f-main: #ffc9c9; --f-worker: #ffd8a8; --f-peer: #d0bfff; --f-shared: #a5d8ff; --f-box: #ffffff;
  --f-allow: #b2f2bb; --f-deny: #ffa8a8; --f-ask: #ffec99;
  --f-muted: #868e96; --f-lost: #e03131; --f-good: #2f9e44;
  font-family: 'Aptos Mono', 'JetBrains Mono Variable', 'JetBrains Mono', ui-monospace, monospace;
}
[data-theme='dark'] .fig-svg {
  --f-panel: #202225; --f-panel-edge: #2b2e33; --f-ink: #d3d3d3; --f-body: #adb5bd; --f-life: #45494f;
  --f-main: #5b2c2c; --f-worker: #4c2a01; --f-peer: #483a71; --f-shared: #154163; --f-box: #2c2f33;
  --f-allow: #1f4a2a; --f-deny: #6b2121; --f-ask: #4d4111;
  --f-muted: #6f757c; --f-lost: #ff6b6b; --f-good: #51cf66;
}
.fig-svg .fpanel { fill: var(--f-panel); stroke: var(--f-panel-edge); stroke-width: 2; }
.fig-svg .ftitle { fill: var(--f-ink); font-weight: 500; }
.fig-svg .ftitle-in { fill: var(--f-body); font-weight: 700; letter-spacing: .02em; }
.fig-svg .fn { stroke: var(--f-ink); stroke-width: 1.6; }
.fig-svg .fn-main { fill: var(--f-main); } .fig-svg .fn-worker { fill: var(--f-worker); } .fig-svg .fn-peer { fill: var(--f-peer); }
.fig-svg .fn-shared { fill: var(--f-shared); stroke-dasharray: 2 3; stroke-linecap: round; }
.fig-svg .fn-box { fill: var(--f-box); } .fig-svg .fn-allow { fill: var(--f-allow); } .fig-svg .fn-deny { fill: var(--f-deny); } .fig-svg .fn-ask { fill: var(--f-ask); }
.fig-svg .fn-result { fill: none; stroke-width: 2; stroke-dasharray: 1.5 4; stroke-linecap: round; }
.fig-svg .ft { fill: var(--f-ink); font-weight: 500; }
.fig-svg .ft-card { font-weight: 700; }
.fig-svg .fb { fill: var(--f-body); font-weight: 400; }
.fig-svg .fi { color: var(--f-body); }
.fig-svg .fe { fill: none; stroke: var(--f-ink); stroke-width: 1.8; }
.fig-svg .fa { fill: var(--f-ink); stroke: none; }
.fig-svg .fl { fill: var(--f-ink); font-weight: 400; }
.fig-svg .fp { fill: var(--f-panel); }
.fig-svg .fe-muted { stroke: var(--f-muted); stroke-width: 1.6; } .fig-svg .tone-muted { fill: var(--f-muted); }
.fig-svg .fe-lost { stroke: var(--f-lost); stroke-dasharray: 6 4; } .fig-svg .tone-lost { fill: var(--f-lost); }
.fig-svg .fe-good { stroke: var(--f-good); } .fig-svg .tone-good { fill: var(--f-good); }
.fig-svg .fe-dashed { stroke-dasharray: 5 4; }
.fig-svg .flife { stroke: var(--f-life); stroke-width: 1.5; fill: none; }
.fig-svg .fnote { fill: var(--f-panel); stroke-width: 1.2; }
.fig-svg .fnote { stroke: var(--f-ink); } .fig-svg .fnote.tone-lost { stroke: var(--f-lost); fill: var(--f-panel); }
</style><rect class="fpanel" x="1" y="1" width="674.4" height="140" rx="16"/><text class="ftitle ftitle-in" x="26" y="32" dominant-baseline="central" font-size="15">Cancel: last two differ and both ≤ A[2], so swap them</text><rect class="fpanel" x="1" y="167" width="674.4" height="140" rx="16"/><text class="ftitle ftitle-in" x="26" y="198" dominant-baseline="central" font-size="15">Survive: last two equal (removing them keeps parity)</text><rect class="fpanel" x="1" y="333" width="674.4" height="140" rx="16"/><text class="ftitle ftitle-in" x="26" y="364" dominant-baseline="central" font-size="15">Survive: B[3] = 3 &gt; A[2], bigger than everything before it</text><path class="fe" d="M144 86H189.5"/><path class="fa " d="M197.5 86L189.4 90.3L189.4 81.7Z"/><path class="fa " d="M136 86L144.1 81.7L144.1 90.3Z"/><rect class="fp" x="149" y="78" width="35.5" height="16"/><text class="fl " x="166.7" y="86" text-anchor="middle" dominant-baseline="central" font-size="11"><tspan x="166.7" y="86">swap</tspan></text><path class="fe" d="M486.9 86H532.4"/><path class="fa " d="M540.4 86L532.3 90.3L532.3 81.7Z"/><path class="fa " d="M478.9 86L487 81.7L487 90.3Z"/><rect class="fp" x="491.9" y="78" width="35.5" height="16"/><text class="fl " x="509.6" y="86" text-anchor="middle" dominant-baseline="central" font-size="11"><tspan x="509.6" y="86">swap</tspan></text><rect class="fn fn-allow" x="26" y="56" width="110" height="60" rx="8"/><text class="ft" x="81" y="76.5" text-anchor="middle" dominant-baseline="central" font-size="14"><tspan x="81" y="76.5">(1,1,2)</tspan><tspan x="81" y="95.5">even</tspan></text><rect class="fn fn-deny" x="197.5" y="56" width="110" height="60" rx="8"/><text class="ft" x="252.5" y="76.5" text-anchor="middle" dominant-baseline="central" font-size="14"><tspan x="252.5" y="76.5">(1,2,1)</tspan><tspan x="252.5" y="95.5">odd</tspan></text><rect class="fn fn-deny" x="368.9" y="56" width="110" height="60" rx="8"/><text class="ft" x="423.9" y="76.5" text-anchor="middle" dominant-baseline="central" font-size="14"><tspan x="423.9" y="76.5">(2,1,2)</tspan><tspan x="423.9" y="95.5">odd</tspan></text><rect class="fn fn-allow" x="540.4" y="56" width="110" height="60" rx="8"/><text class="ft" x="595.4" y="76.5" text-anchor="middle" dominant-baseline="central" font-size="14"><tspan x="595.4" y="76.5">(2,2,1)</tspan><tspan x="595.4" y="95.5">even</tspan></text><rect class="fn fn-allow" x="26" y="222" width="110" height="60" rx="8"/><text class="ft" x="81" y="242.5" text-anchor="middle" dominant-baseline="central" font-size="14"><tspan x="81" y="242.5">(1,1,1)</tspan><tspan x="81" y="261.5">even</tspan></text><rect class="fn fn-allow" x="197.5" y="222" width="110" height="60" rx="8"/><text class="ft" x="252.5" y="242.5" text-anchor="middle" dominant-baseline="central" font-size="14"><tspan x="252.5" y="242.5">(1,2,2)</tspan><tspan x="252.5" y="261.5">even</tspan></text><rect class="fn fn-allow" x="368.9" y="222" width="110" height="60" rx="8"/><text class="ft" x="423.9" y="242.5" text-anchor="middle" dominant-baseline="central" font-size="14"><tspan x="423.9" y="242.5">(2,1,1)</tspan><tspan x="423.9" y="261.5">even</tspan></text><rect class="fn fn-allow" x="540.4" y="222" width="110" height="60" rx="8"/><text class="ft" x="595.4" y="242.5" text-anchor="middle" dominant-baseline="central" font-size="14"><tspan x="595.4" y="242.5">(2,2,2)</tspan><tspan x="595.4" y="261.5">even</tspan></text><rect class="fn fn-allow" x="26" y="388" width="110" height="60" rx="8"/><text class="ft" x="81" y="408.5" text-anchor="middle" dominant-baseline="central" font-size="14"><tspan x="81" y="408.5">(1,1,3)</tspan><tspan x="81" y="427.5">even</tspan></text><rect class="fn fn-allow" x="197.5" y="388" width="110" height="60" rx="8"/><text class="ft" x="252.5" y="408.5" text-anchor="middle" dominant-baseline="central" font-size="14"><tspan x="252.5" y="408.5">(1,2,3)</tspan><tspan x="252.5" y="427.5">even</tspan></text><rect class="fn fn-deny" x="368.9" y="388" width="110" height="60" rx="8"/><text class="ft" x="423.9" y="408.5" text-anchor="middle" dominant-baseline="central" font-size="14"><tspan x="423.9" y="408.5">(2,1,3)</tspan><tspan x="423.9" y="427.5">odd</tspan></text><rect class="fn fn-allow" x="540.4" y="388" width="110" height="60" rx="8"/><text class="ft" x="595.4" y="408.5" text-anchor="middle" dominant-baseline="central" font-size="14"><tspan x="595.4" y="408.5">(2,2,3)</tspan><tspan x="595.4" y="427.5">even</tspan></text></svg>